<?xml version="1.0" encoding="utf-8"?>
<!-- Generator: Adobe Illustrator 27.5.0, SVG Export Plug-In . SVG Version: 6.00 Build 0)  -->
<svg version="1.1" xmlns="http://www.w3.org/2000/svg" xmlns:xlink="http://www.w3.org/1999/xlink" x="0px" y="0px"
	 viewBox="0 0 3710 3710" style="enable-background:new 0 0 3710 3710;" xml:space="preserve">
<g id="Background">
	<g>
		<g>
			<rect style="fill:#FFFFFF;" width="3710" height="3710"/>
		</g>
	</g>
</g>
<g id="Illustration">
	<g>
		<linearGradient id="SVGID_1_" gradientUnits="userSpaceOnUse" x1="3514.9075" y1="3698.8843" x2="1535.8544" y2="1592.1509">
			<stop  offset="0" style="stop-color:#DAE3FE"/>
			<stop  offset="1" style="stop-color:#E9EFFD"/>
		</linearGradient>
		<path style="fill:url(#SVGID_1_);" d="M2920.698,2853.672c-73.059,75.306-138.429,119.574-188.479,152.993
			c-488.125,325.926-1046.106,231.986-1218.619,199.878c-278.33-51.803-513.278-88.348-715.141-270.723
			c-458.693-414.411-436.383-1278.905-85.886-1814.42c41.558-63.497,391.526-582.257,950.714-655.354
			c13.677-1.788,23.882-2.806,32.82-3.752c86.505-9.159,622.56-57.498,1059.66,308.704c62.569,52.42,163.26,146.972,256.633,291.18
			C3353.815,1589.464,3354.897,2406.117,2920.698,2853.672z"/>
		<g>
			<g>
				<path style="fill:#91B3FA;" d="M3250.111,916.465c-0.83-17.235-24.265-21.912-31.579-6.284
					c-70.709,151.095-268.531,541.483-504.15,727.002c-383.642,302.067-695.446,844.118-537.049,1177.865
					C2177.333,2815.049,3340.53,2794.362,3250.111,916.465z"/>
				<path style="opacity:0.43;fill:#FFFFFF;" d="M3181.383,1137.388c-1.26,5.113-2.705,9.232-4.066,13.729l-4.298,13.173
					l-8.88,26.222c-6.038,17.435-12.341,34.771-18.646,52.108c-12.733,34.625-25.894,69.089-39.373,103.433
					c-27.083,68.637-56.021,136.531-85.974,203.977c-29.861,67.493-61.61,134.151-94.756,200.109
					c-33.203,65.925-67.354,131.407-103.639,195.73c-72.306,128.764-151.684,253.718-239.572,372.561
					c-44.56,58.946-90.685,116.76-140.064,171.773c-49.757,54.639-101.863,107.189-157.566,155.705
					c-1.211,1.055-3.048,0.928-4.103-0.283c-1.029-1.181-0.934-2.958,0.194-4.024l0.03-0.027
					c53.582-50.458,104.356-103.703,152.409-159.326c48.215-55.497,93.159-113.746,136.52-173.077
					c43.341-59.374,84.282-120.482,123.817-182.469c39.519-62.02,76.452-125.644,113.016-189.458
					c72.604-127.976,138.344-259.78,200.404-393.255c30.891-66.812,60.438-134.255,88.781-202.205
					c14.226-33.953,28.141-68.039,41.632-102.294l19.83-51.532l9.647-25.856l4.675-12.967c1.463-4.272,3.107-8.84,4.233-12.63
					l0.186-0.626c0.453-1.526,2.058-2.397,3.584-1.944C3180.884,1134.375,3181.745,1135.904,3181.383,1137.388z"/>
			</g>
			<g>
				<path style="fill:#BDD0FB;" d="M2760.637,465.611c-5.463-15.579-28.23-13.475-30.674,2.852
					c-23.625,157.851-98.539,569.823-264.003,804.231c-269.414,381.669-407.482,963.818-171.178,1226.67
					C2294.782,2499.364,3355.85,2163.07,2760.637,465.611z"/>
				<path style="opacity:0.43;fill:#FFFFFF;" d="M2757.928,686.951c0.241,5.043,0.041,9.21,0.022,13.707l-0.346,13.254
					l-0.983,26.471c-0.776,17.637-1.823,35.255-2.872,52.874c-2.223,35.228-4.883,70.425-7.868,105.599
					c-6.1,70.335-14.11,140.494-23.169,210.519c-8.961,70.044-19.888,139.836-32.29,209.367
					c-12.462,69.517-25.913,138.886-41.639,207.776c-31.179,137.814-69.898,274.06-118.085,407.025
					c-24.794,66.212-51.332,131.812-81.619,195.732c-30.741,63.677-64.202,126.079-102.072,185.756
					c-0.839,1.322-2.59,1.713-3.911,0.874c-1.289-0.817-1.693-2.502-0.936-3.81l0.02-0.033
					c35.35-60.901,67.372-123.583,96.25-187.705c29.064-64.048,54.379-129.727,77.947-195.965
					c23.54-66.271,44.413-133.477,63.753-201.106c19.319-67.654,35.823-136.076,51.95-204.567
					c31.678-137.16,56.002-275.961,76.523-415.289c10.112-69.693,18.815-139.601,26.283-209.644
					c3.791-35.016,7.261-70.07,10.294-105.162l4.138-52.665l1.8-26.342l0.754-13.167c0.177-4.315,0.44-8.957,0.44-12.728l0-0.637
					c0-1.551,1.258-2.81,2.809-2.809C2756.626,684.276,2757.854,685.466,2757.928,686.951z"/>
			</g>
		</g>
		<g>
			
				<linearGradient id="SVGID_00000023992330513462208040000002786413042519455639_" gradientUnits="userSpaceOnUse" x1="4695.2627" y1="805.4424" x2="61.482" y2="2492.3306">
				<stop  offset="0" style="stop-color:#E1473D"/>
				<stop  offset="1" style="stop-color:#E9605A"/>
			</linearGradient>
			<path style="fill:url(#SVGID_00000023992330513462208040000002786413042519455639_);" d="M2919.056,1717.588
				c-19.568-390.979-269.11-719.461-579.896-761.05c-139.187-18.623-269.734,20.421-378.143,101.06l-180.474,594.587
				l206.369,522.361l-284.245,646.733l73.981-621.858l-147.963-534.798l114.026-376.994
				c-120.132-238.642-335.567-399.167-578.915-392.107c-320.296,9.295-580.471,318.935-600.985,717.382
				c-13.556,263.286,76.183,505.268,223.507,668.401l904.132,784.074c39.055,33.866,89.982,35.39,128.966,3.901l885.598-715.382
				C2846.31,2205.162,2931.981,1975.768,2919.056,1717.588z"/>
			
				<linearGradient id="SVGID_00000096045360254415368330000009004132586146996654_" gradientUnits="userSpaceOnUse" x1="2369.3157" y1="557.1821" x2="938.7786" y2="3635.0007">
				<stop  offset="0" style="stop-color:#FF928E"/>
				<stop  offset="1" style="stop-color:#FE7062"/>
			</linearGradient>
			<path style="fill:url(#SVGID_00000096045360254415368330000009004132586146996654_);" d="M3008.406,1717.588
				c-19.568-390.979-269.111-719.461-579.896-761.05c-139.187-18.623-269.734,20.421-378.143,101.06l-180.474,594.587
				l206.369,522.361l-284.244,646.733l73.981-621.858l-147.963-534.798l114.026-376.994
				c-120.132-238.642-335.567-399.167-578.915-392.107c-320.296,9.295-580.471,318.935-600.985,717.382
				c-13.556,263.286,76.183,505.268,223.507,668.401l904.132,784.074c39.055,33.866,89.982,35.39,128.966,3.901l885.598-715.382
				C2935.661,2205.162,3021.331,1975.768,3008.406,1717.588z"/>
		</g>
		<g>
			<polygon style="fill:#7D97F4;" points="1198.883,3214.457 1084.809,3214.457 1136.048,1960.526 1143.128,1961.406 			"/>
			<rect x="873.941" y="3053.822" style="fill:#7D97F4;" width="534.249" height="53.545"/>
			<rect x="828.561" y="3107.367" style="fill:#91B3FA;" width="629.135" height="53.545"/>
			<rect x="779.055" y="3160.912" style="fill:#7D97F4;" width="724.021" height="53.545"/>
			<rect x="739.408" y="2237.844" style="fill:#7D97F4;" width="846.273" height="21.229"/>
			<polygon style="fill:#7D97F4;" points="495.053,2587.056 488.7,2582.295 753.828,2228.503 953.957,2582.723 947.043,2586.628 
				752.893,2242.99 			"/>
			
				<ellipse transform="matrix(0.2298 -0.9732 0.9732 0.2298 -1604.2842 2462.1057)" style="fill:#91B3FA;" cx="753.36" cy="2244.603" rx="28.15" ry="28.15"/>
			<polygon style="fill:#7D97F4;" points="1316.006,2594.574 1309.652,2589.813 1574.781,2236.021 1774.91,2590.241 
				1767.996,2594.146 1573.846,2250.508 			"/>
			
				<ellipse transform="matrix(0.7071 -0.7071 0.7071 0.7071 -1264.8801 1468.7955)" style="fill:#91B3FA;" cx="1140.553" cy="2261.243" rx="81.434" ry="81.434"/>
			<circle style="fill:#91B3FA;" cx="1567.485" cy="2246.238" r="28.15"/>
			<path style="fill:#7D97F4;" d="M1542.141,2821.505c126.646,0,229.312-102.666,229.312-229.312h-458.624
				C1312.829,2718.839,1415.495,2821.505,1542.141,2821.505z"/>
			<path style="fill:#91B3FA;" d="M1784.739,2603.498H1293.93c-2.541,0-4.62-2.079-4.62-4.62v-25.68c0-2.542,2.079-4.621,4.62-4.621
				h490.808c2.541,0,4.62,2.079,4.62,4.621v25.68C1789.359,2601.418,1787.28,2603.498,1784.739,2603.498z"/>
			<path style="fill:#7D97F4;" d="M721.188,2813.987c126.646,0,229.312-102.667,229.312-229.312H491.876
				C491.876,2711.321,594.543,2813.987,721.188,2813.987z"/>
			<path style="fill:#91B3FA;" d="M963.786,2595.979H472.978c-2.541,0-4.62-2.079-4.62-4.621v-25.68c0-2.541,2.079-4.62,4.62-4.62
				h490.808c2.541,0,4.62,2.079,4.62,4.62v25.68C968.406,2593.9,966.327,2595.979,963.786,2595.979z"/>
		</g>
		<g>
			
				<linearGradient id="SVGID_00000026843729537316386490000017445595377314347652_" gradientUnits="userSpaceOnUse" x1="482.5052" y1="1611.0844" x2="582.5859" y2="1862.1345" gradientTransform="matrix(1 0 0 1 1167.8792 0)">
				<stop  offset="0" style="stop-color:#09005D"/>
				<stop  offset="1" style="stop-color:#1A0F91"/>
			</linearGradient>
			<path style="fill:url(#SVGID_00000026843729537316386490000017445595377314347652_);" d="M1709.726,1746.129
				c0,0,33.74,16.411,39.943,35.264c4.978,15.127,42.285,17.077,45.97,46.827c1.903,15.36,13.269,27.661,28.568,30.006
				c38.103,5.84,96.823,25.626,106.218,91.781c7.171,50.495-18.57,69.643-45.586,76.27c-19.842,4.868-33.028,24.167-29.015,44.2
				c3.85,19.214-1.891,41.426-35.178,58.99c-74.594,39.361-149.087-93.248-149.087-93.248l-15.267-231.543L1709.726,1746.129z"/>
			
				<linearGradient id="SVGID_00000000914782765149523190000002561109583311409338_" gradientUnits="userSpaceOnUse" x1="692.5566" y1="2862.1123" x2="852.6967" y2="3226.4673" gradientTransform="matrix(0.881 -0.4732 0.4732 0.881 -603.6525 -280.9226)">
				<stop  offset="0" style="stop-color:#FEBBBA"/>
				<stop  offset="1" style="stop-color:#FF928E"/>
			</linearGradient>
			<path style="fill:url(#SVGID_00000000914782765149523190000002561109583311409338_);" d="M1230.817,1860.834
				c0,0,256.827,260.098,387.311,113.033c0,0-18.582,88.853-41.059,107.041c0,0-176.919,111.789-345.612-185.42L1230.817,1860.834z"
				/>
			
				<linearGradient id="SVGID_00000070109290935564939980000004480918144209347230_" gradientUnits="userSpaceOnUse" x1="848.3571" y1="3218.3333" x2="933.2216" y2="3218.3333" gradientTransform="matrix(1 0 0 1 1167.8792 0)">
				<stop  offset="0" style="stop-color:#09005D"/>
				<stop  offset="1" style="stop-color:#1A0F91"/>
			</linearGradient>
			<path style="fill:url(#SVGID_00000070109290935564939980000004480918144209347230_);" d="M2016.337,3197.98l4.827,39.682
				c0.916,7.528,6.843,13.48,14.377,14.341c12.721,1.453,33.135,2.943,53.108,0.831c8.767-0.927,14.458-9.804,11.788-18.206
				c-4.869-15.319-13.777-38.314-26.619-51.847h-44.02C2021.66,3182.782,2015.355,3189.901,2016.337,3197.98z"/>
			
				<linearGradient id="SVGID_00000048500137427824099630000003293780374967826870_" gradientUnits="userSpaceOnUse" x1="489.7607" y1="3552.9924" x2="611.887" y2="2125.6418" gradientTransform="matrix(1 0 0 1 1167.8792 0)">
				<stop  offset="0" style="stop-color:#FEBBBA"/>
				<stop  offset="1" style="stop-color:#FF928E"/>
			</linearGradient>
			<path style="fill:url(#SVGID_00000048500137427824099630000003293780374967826870_);" d="M1671.56,2733.131l-7.43,43.706
				c0,0,24.881,252.024,29.307,352.834c0.694,15.805-3.395,31.424-11.69,44.895l-43.264,70.257l109.955-64.883l2.189-13.418
				l-18-24.748l23.577-282.33c1.385-16.585-2.037-33.219-9.858-47.911l-22.743-42.726L1671.56,2733.131z"/>
			
				<linearGradient id="SVGID_00000155839219818842538280000006143655862098747807_" gradientUnits="userSpaceOnUse" x1="454.0839" y1="3202.8394" x2="591.4012" y2="3202.8394" gradientTransform="matrix(1 0 0 1 1167.8792 0)">
				<stop  offset="0" style="stop-color:#09005D"/>
				<stop  offset="1" style="stop-color:#1A0F91"/>
			</linearGradient>
			<path style="fill:url(#SVGID_00000155839219818842538280000006143655862098747807_);" d="M1631.242,3255h35.089
				c6.568,0,12.762-3.015,16.768-8.22c10.939-14.214,33.602-41.945,44.439-42.668c14.588-0.974,12.722,50.889,12.722,50.889h8.177
				l10.358-64.446c2.606-16.215-5.458-32.279-20.018-39.876c0,0-3.335,24.662-21.417,35.571
				c-18.082,10.909-73.583,49.975-73.583,49.975s-6.798-0.969-14.261,0.38C1618.444,3238.605,1619.991,3255,1631.242,3255z"/>
			
				<linearGradient id="SVGID_00000141441195228922292860000015402369491249694348_" gradientUnits="userSpaceOnUse" x1="735.4251" y1="3574.2305" x2="857.5834" y2="2146.5049" gradientTransform="matrix(1 0 0 1 1167.8792 0)">
				<stop  offset="0" style="stop-color:#FEBBBA"/>
				<stop  offset="1" style="stop-color:#FF928E"/>
			</linearGradient>
			<path style="fill:url(#SVGID_00000141441195228922292860000015402369491249694348_);" d="M1822.162,2753.889
				c0,0,145.761,276.494,168.931,339.622s31.287,115.791,31.598,120.778c0.486,7.793,10.178,15.267,36.894,15.267
				c13.788,0,20.54-5.527,23.847-10.876c2.821-4.564,2.967-10.275,0.59-15.085c-8.432-17.064-35.189-71.595-45.099-96.328
				c-11.832-29.53-37.282-163.355-51.24-209.884c-13.958-46.529-29.735-97.002-90.519-143.493
				C1897.164,2753.889,1855.439,2713.021,1822.162,2753.889z"/>
			
				<linearGradient id="SVGID_00000088129263788012486820000012712770057394921137_" gradientUnits="userSpaceOnUse" x1="1589.4998" y1="1991.186" x2="1769.7567" y2="2322.4084">
				<stop  offset="0" style="stop-color:#4F52FF"/>
				<stop  offset="1" style="stop-color:#4042E2"/>
			</linearGradient>
			<path style="fill:url(#SVGID_00000088129263788012486820000012712770057394921137_);" d="M1730.082,2300.839
				c-37.599-159.325,57.652-249.437,57.652-249.437c-60.102-57.691-169.606-83.942-169.606-83.942s-104.491,76.392-92.095,136.187
				c7.265,35.046,73.447,209.915,73.447,209.915S1660.677,2342.524,1730.082,2300.839z"/>
			
				<linearGradient id="SVGID_00000007422495267463450990000005154200765750894482_" gradientUnits="userSpaceOnUse" x1="829.1583" y1="2141.4114" x2="523.8262" y2="2629.9424" gradientTransform="matrix(1 0 0 1 1167.8792 0)">
				<stop  offset="0" style="stop-color:#09005D"/>
				<stop  offset="1" style="stop-color:#1A0F91"/>
			</linearGradient>
			<path style="fill:url(#SVGID_00000007422495267463450990000005154200765750894482_);" d="M1813.446,2379.717
				c-15.302-46.098-83.364-78.877-83.364-78.877c-69.405,41.685-130.603,12.722-130.603,12.722s-13.724,52.459-4.252,101.211
				c9.472,48.751,68.903,362.064,68.903,362.064c93.642,18.974,237.662-19.09,237.662-19.09
				C1842.146,2651.849,1828.748,2425.815,1813.446,2379.717z"/>
			
				<linearGradient id="SVGID_00000022521888993494126760000016928156715852033950_" gradientUnits="userSpaceOnUse" x1="476.3676" y1="2146.0522" x2="499.3086" y2="1978.2213" gradientTransform="matrix(1 0 0 1 1167.8792 0)">
				<stop  offset="0" style="stop-color:#FEBBBA"/>
				<stop  offset="1" style="stop-color:#FF928E"/>
			</linearGradient>
			<path style="fill:url(#SVGID_00000022521888993494126760000016928156715852033950_);" d="M1686.438,1862.172l30.569,137.311
				c2.927,12.095-8.099,10.115-20.327,7.81c-20.025-3.775-45.835-11.551-54.463-27.133c-0.878-1.586-1.317-3.379-1.564-5.175
				l-13.133-95.215c-1.042-7.554,3.042-14.886,10.013-17.977l25.343-11.237C1672.634,1846.23,1683.927,1851.798,1686.438,1862.172z"
				/>
			
				<linearGradient id="SVGID_00000060746820293697203590000003972352925039977364_" gradientUnits="userSpaceOnUse" x1="1870.5509" y1="2053.9197" x2="1532.5686" y2="2824.5186">
				<stop  offset="0" style="stop-color:#FEBBBA"/>
				<stop  offset="1" style="stop-color:#FF928E"/>
			</linearGradient>
			<path style="fill:url(#SVGID_00000060746820293697203590000003972352925039977364_);" d="M1787.734,2051.402
				c0,0,213.359,152.647,27.287,313.048c0,0-7.095,8.027-21.053,12.199c-7.046,2.106-27.891,17.877-38.46,26.1
				c-3.397,2.644-8.306,1.744-10.59-1.905c-1.79-2.859-2-6.433-0.558-9.482l26.414-55.855c7.335-6.845,18.563-7.332,26.462-1.145
				c5.039,3.946,12.421,2.294,15.242-3.452c14.384-29.296,41.544-115.458-69.623-212.818c-4.179-3.66-5.236-9.713-2.671-14.641
				C1747.993,2088.447,1765.856,2058.651,1787.734,2051.402z"/>
			<g>
				
					<linearGradient id="SVGID_00000029734331255163880510000017563685161207454633_" gradientUnits="userSpaceOnUse" x1="254.9467" y1="2133.4609" x2="455.1165" y2="1777.2258" gradientTransform="matrix(0.9809 -0.1943 0.1943 0.9809 938.7892 -99.2406)">
					<stop  offset="0" style="stop-color:#FEBBBA"/>
					<stop  offset="1" style="stop-color:#FF928E"/>
				</linearGradient>
				<path style="fill:url(#SVGID_00000029734331255163880510000017563685161207454633_);" d="M1627.886,1736.999
					c0,0-32.545,22.03-46.529,78.132c-13.984,56.102,8.742,76.226,32.037,74.993c23.295-1.233,57.072-8.437,86.338-48.685
					C1728.997,1801.191,1670.533,1710.08,1627.886,1736.999z"/>
				
					<linearGradient id="SVGID_00000096022977395134265460000016228262482628505990_" gradientUnits="userSpaceOnUse" x1="297.995" y1="1823.2369" x2="398.0797" y2="2074.2974" gradientTransform="matrix(0.9809 -0.1943 0.1943 0.9809 938.7892 -99.2406)">
					<stop  offset="0" style="stop-color:#09005D"/>
					<stop  offset="1" style="stop-color:#1A0F91"/>
				</linearGradient>
				<path style="fill:url(#SVGID_00000096022977395134265460000016228262482628505990_);" d="M1670.219,1818.811
					c0,0,11.924-80.389-54.819-68.093l-13.496,14.05c0,0-32.669-36.791,3.484-64.602c36.153-27.811,86.322-20.689,114.078,29.942
					c27.756,50.63,37.83,86.208,14.565,117.669c-23.265,31.461-40.764,4.478-40.764,4.478s10.669-27.23,1.816-38.914
					c-8.853-11.685-20.275,6.795-20.275,6.795L1670.219,1818.811z"/>
				
					<linearGradient id="SVGID_00000056417030407134771800000018038591220299971457_" gradientUnits="userSpaceOnUse" x1="297.5546" y1="2157.4053" x2="497.7242" y2="1801.1705" gradientTransform="matrix(0.9809 -0.1943 0.1943 0.9809 938.7892 -99.2406)">
					<stop  offset="0" style="stop-color:#FEBBBA"/>
					<stop  offset="1" style="stop-color:#FF928E"/>
				</linearGradient>
				<path style="fill:url(#SVGID_00000056417030407134771800000018038591220299971457_);" d="M1679.341,1825.695
					c0,0,5.887-41.36,27.01-29.536c21.123,11.824-7.613,38.636-19.134,47.759L1679.341,1825.695z"/>
			</g>
			<g>
				
					<linearGradient id="SVGID_00000101817534845246517770000010998537635724553632_" gradientUnits="userSpaceOnUse" x1="651.4099" y1="2902.8979" x2="836.2982" y2="3323.5603" gradientTransform="matrix(0.881 -0.4732 0.4732 0.881 -603.6525 -280.9226)">
					<stop  offset="0" style="stop-color:#FEBBBA"/>
					<stop  offset="1" style="stop-color:#FF928E"/>
				</linearGradient>
				<path style="fill:url(#SVGID_00000101817534845246517770000010998537635724553632_);" d="M1245.235,1907.15
					c0.913,4.794,19.206,3.015,18.993-18.484c-4.01-8.204-17.62-45.271-25.941-49.24c-44.32-21.139-117.407-38.22-117.407-38.22
					c-3.94,12.775,7.331,17.191,7.331,17.191l37.526,12.143c-0.148,11.798-2.163,22.773,0.869,35.32
					c2.296,9.502,8.411,17.689,16.692,23.011c8.311,5.341,19.387,12.138,28.993,16.953
					C1230.472,1914.937,1245.235,1907.15,1245.235,1907.15z"/>
				
					<linearGradient id="SVGID_00000034801175213525138260000007475506489209721019_" gradientUnits="userSpaceOnUse" x1="-2089.5342" y1="2451.3411" x2="-2039.7487" y2="2451.3411" gradientTransform="matrix(-0.9609 0.277 0.277 0.9609 -1452.0044 81.7321)">
					<stop  offset="0" style="stop-color:#FEBBBA"/>
					<stop  offset="1" style="stop-color:#FF928E"/>
				</linearGradient>
				<path style="fill:url(#SVGID_00000034801175213525138260000007475506489209721019_);" d="M1223.724,1896.642l4.232-3.359
					c-1.086-1.37-26.723-33.656-36.211-39.174c-3.604-2.092-5.656-4.182-6.108-6.214c-0.25-1.098-0.022-2.319,0.679-3.699
					l29.338,6.265l16.296,14.342l3.569-4.06l-17.353-15.277l-34.364-7.335l-1.029,1.482c-2.301,3.33-3.096,6.423-2.414,9.458
					c0.805,3.616,3.637,6.792,8.663,9.715C1196.17,1862.94,1216.495,1887.52,1223.724,1896.642z"/>
			</g>
		</g>
		<g>
			
				<linearGradient id="SVGID_00000082354632651018057580000004588803966739624862_" gradientUnits="userSpaceOnUse" x1="2363.1335" y1="2317.2473" x2="2692.103" y2="2236.1316">
				<stop  offset="0" style="stop-color:#FEBBBA"/>
				<stop  offset="1" style="stop-color:#FF928E"/>
			</linearGradient>
			<path style="fill:url(#SVGID_00000082354632651018057580000004588803966739624862_);" d="M2489.39,2337.896l120.614,1.492
				l-42.213-39.735c-10.492-9.876-26.507-11.476-38.619-3.621c-7.091,4.6-14.782,10.844-21.445,19.111
				c0,0-75.238-27.496-111.712-89.016c-11.359,16.875-24.643,39.843-36.152,68.417
				C2392.56,2313.739,2434.945,2328.832,2489.39,2337.896z"/>
			
				<linearGradient id="SVGID_00000055674842007946642050000017132295498364093085_" gradientUnits="userSpaceOnUse" x1="2546.2769" y1="3118.4463" x2="2481.9927" y2="2631.3694">
				<stop  offset="0" style="stop-color:#09005D"/>
				<stop  offset="1" style="stop-color:#1A0F91"/>
			</linearGradient>
			<path style="fill:url(#SVGID_00000055674842007946642050000017132295498364093085_);" d="M2646.241,3198.045
				c-32.111,2.776-87.839,7.284-131.774,9.218c-26.41,1.162-41.615-1.424-50.372-4.93c0.015,0.987,0.043,1.92,0.082,2.787
				c0.208,4.623,3.965,8.322,8.634,8.582c83.016,4.634,149.039,1.604,172.544,0.173c4.86-0.296,7.757-5.577,5.271-9.721
				C2649.383,3202.083,2647.877,3200.052,2646.241,3198.045z"/>
			
				<linearGradient id="SVGID_00000062158788667210601120000003623190279007571881_" gradientUnits="userSpaceOnUse" x1="2668.1267" y1="3009.5083" x2="2430.7686" y2="3372.9631">
				<stop  offset="0" style="stop-color:#4F52FF"/>
				<stop  offset="1" style="stop-color:#4042E2"/>
			</linearGradient>
			<path style="fill:url(#SVGID_00000062158788667210601120000003623190279007571881_);" d="M2514.467,3207.264
				c43.935-1.934,99.663-6.442,131.774-9.218c-31.57-38.733-131.774-64.839-131.774-64.839h-28.301
				c-19.465,28.058-22.283,54.772-22.071,69.127C2472.853,3205.84,2488.057,3208.426,2514.467,3207.264z"/>
			
				<linearGradient id="SVGID_00000163791642088157820840000013985138309556662927_" gradientUnits="userSpaceOnUse" x1="2481.4009" y1="3119.0884" x2="2534.1982" y2="3119.0884">
				<stop  offset="0" style="stop-color:#FEBBBA"/>
				<stop  offset="1" style="stop-color:#FF928E"/>
			</linearGradient>
			<path style="fill:url(#SVGID_00000163791642088157820840000013985138309556662927_);" d="M2481.401,3087.004l2.648,52.408
				c0.287,5.675,4.535,10.444,10.219,11.257c5.655,0.809,13.228,0.912,21.26-1.761c4.94-1.645,8.609-5.808,9.519-10.886
				l9.152-51.018H2481.401z"/>
			<g>
				
					<linearGradient id="SVGID_00000157307656663566781390000003844118711564252597_" gradientUnits="userSpaceOnUse" x1="2156.8892" y1="3169.8376" x2="2092.6047" y2="2682.7578">
					<stop  offset="0" style="stop-color:#09005D"/>
					<stop  offset="1" style="stop-color:#1A0F91"/>
				</linearGradient>
				<path style="fill:url(#SVGID_00000157307656663566781390000003844118711564252597_);" d="M2152.933,3243.095
					c-13.925-2.261-20.226-10.683-22.867-19.687c-0.018,0.081-0.035,0.162-0.053,0.243c-2.048,9.497,2.701,19.341,12.197,24.022
					c11.476,5.658,24.025,6.623,33.766,6.155c10.452-0.501,20.045-5.537,25.318-13.595l0.08-0.121
					C2190.881,3246.155,2176.156,3246.866,2152.933,3243.095z"/>
				
					<linearGradient id="SVGID_00000070095886526017311180000016515768183727146924_" gradientUnits="userSpaceOnUse" x1="2084.7678" y1="3016.6465" x2="2381.4658" y2="3493.8352">
					<stop  offset="0" style="stop-color:#4F52FF"/>
					<stop  offset="1" style="stop-color:#4042E2"/>
				</linearGradient>
				<path style="fill:url(#SVGID_00000070095886526017311180000016515768183727146924_);" d="M2218.587,3103.151h-23.339
					c-35.55-0.845-57.875,86.452-65.182,120.258c2.641,9.004,8.942,17.426,22.867,19.687c23.223,3.771,37.948,3.059,48.44-2.984
					c19.206-29.426,28.728-72.521,33.305-97.672C2239.884,3113.836,2218.587,3103.151,2218.587,3103.151z"/>
			</g>
			
				<linearGradient id="SVGID_00000108994857200559934220000009862451341328802443_" gradientUnits="userSpaceOnUse" x1="2184.8674" y1="3091.5564" x2="2247.9656" y2="3091.5564">
				<stop  offset="0" style="stop-color:#FEBBBA"/>
				<stop  offset="1" style="stop-color:#FF928E"/>
			</linearGradient>
			<path style="fill:url(#SVGID_00000108994857200559934220000009862451341328802443_);" d="M2198.248,3054.507l-12.96,51.546
				c-1.589,6.32,1.436,12.857,7.279,15.855c7.25,3.721,17.457,7.63,26.838,6.499c4.412-0.532,8.078-3.639,9.534-7.793l19.026-54.231
				L2198.248,3054.507z"/>
			
				<linearGradient id="SVGID_00000050620971969962845780000009908758571762957444_" gradientUnits="userSpaceOnUse" x1="2695.2434" y1="2410.6455" x2="2156.5269" y2="3293.1145">
				<stop  offset="0" style="stop-color:#09005D"/>
				<stop  offset="1" style="stop-color:#1A0F91"/>
			</linearGradient>
			<path style="fill:url(#SVGID_00000050620971969962845780000009908758571762957444_);" d="M2654.147,2375.621
				c0,0-115.816,723.949-113.909,727.927c0,0-31.987,14.539-66.859,1.853c0,0,10.473-387.003,35.014-535.388
				c0,0-197.659,345.904-260.428,518.261c0,0-32.738-3.904-59.837-21.739c0,0,212.823-622.611,269.602-705.54L2654.147,2375.621z"/>
			
				<linearGradient id="SVGID_00000034774482896461988950000000367801012296741537_" gradientUnits="userSpaceOnUse" x1="2879.1113" y1="2245.9236" x2="2728.2903" y2="2369.5474">
				<stop  offset="0" style="stop-color:#09005D"/>
				<stop  offset="1" style="stop-color:#1A0F91"/>
			</linearGradient>
			<path style="fill:url(#SVGID_00000034774482896461988950000000367801012296741537_);" d="M2513.016,2567.219
				c-0.796,0-1.603-0.215-2.328-0.67c-2.056-1.288-2.68-4-1.393-6.056l43.282-69.13c0.642-1.026,1.674-1.738,2.858-1.979
				l31.85-6.412c2.369-0.494,4.695,1.064,5.176,3.442c0.479,2.378-1.062,4.695-3.442,5.176l-29.996,6.039l-42.277,67.525
				C2515.91,2566.489,2514.479,2567.219,2513.016,2567.219z"/>
			
				<linearGradient id="SVGID_00000004546790278661656700000005256215400380150676_" gradientUnits="userSpaceOnUse" x1="3052.7573" y1="1762.4553" x2="2802.8521" y2="2087.575">
				<stop  offset="0" style="stop-color:#FEBBBA"/>
				<stop  offset="1" style="stop-color:#FF928E"/>
			</linearGradient>
			<path style="fill:url(#SVGID_00000004546790278661656700000005256215400380150676_);" d="M3185.621,1666.717
				c0,0-78.151,17.237-125.684,39.183c-9.441,4.359-16.971,11.98-21.26,21.374c-14.216,31.141-56.749,109.231-139.235,146.496
				c11.879,15.767,31.006,48.563,39.338,103.685c49.542-36.874,92.312-98.453,112.845-199.446c0,0,15.636,8.5,35.143-0.973
				c10.305-5.005,22.204-12.104,31.136-17.688c8.9-5.563,15.528-14.211,18.103-24.311c3.399-13.337,1.397-25.064,1.397-37.645
				l40.17-12.446C3177.575,1684.948,3189.651,1680.39,3185.621,1666.717z"/>
			
				<linearGradient id="SVGID_00000084521895687222779520000012638139842281828744_" gradientUnits="userSpaceOnUse" x1="2882.4026" y1="906.556" x2="2760.7349" y2="1388.1564">
				<stop  offset="0" style="stop-color:#4F52FF"/>
				<stop  offset="1" style="stop-color:#4042E2"/>
			</linearGradient>
			<path style="fill:url(#SVGID_00000084521895687222779520000012638139842281828744_);" d="M2938.78,1977.456
				c-8.332-55.123-27.459-87.918-39.338-103.685c-51.241,23.151-117.896,30.552-202.775,1.14c-7.824-2.711-15.985-4.298-24.26-4.784
				c-45.186-2.65-194.086-7.484-317.296,33.223c-25.931,8.567-46.934,27.736-57.756,52.575
				c-33.33,76.488-87.292,250.677,62.51,338.619c11.509-28.574,24.793-51.542,36.152-68.417
				c-24.125-40.691-31.269-96.268,11.541-168.641c31.215,84.288,45.859,207.275,48.92,261.704c1.008,17.92-2.136,35.805-9.167,52.35
				l-0.767,1.805c-1.504,3.541,0.567,7.609,4.352,8.459c84.332,18.944,172.044,13.797,198.249,11.633
				c4.678-0.387,8.565-3.733,9.638-8.255c41.008-172.792,41.102-290.66,31.062-365.171
				C2728.202,2028.586,2845.505,2046.879,2938.78,1977.456z"/>
			
				<linearGradient id="SVGID_00000063616271184065311830000002882050907426062480_" gradientUnits="userSpaceOnUse" x1="3787.8093" y1="724.4622" x2="3098.3257" y2="1495.0609">
				<stop  offset="0" style="stop-color:#09005D"/>
				<stop  offset="1" style="stop-color:#1A0F91"/>
			</linearGradient>
			<path style="fill:url(#SVGID_00000063616271184065311830000002882050907426062480_);" d="M2690.005,2025.632
				c-2.169,0-4.058-1.609-4.35-3.82c-9.594-72.477-29.101-104.109-29.296-104.422c-1.292-2.052-0.68-4.764,1.367-6.06
				c2.058-1.288,4.758-0.687,6.058,1.356c0.841,1.326,20.7,33.292,30.584,107.976c0.32,2.403-1.374,4.614-3.779,4.931
				C2690.394,2025.619,2690.198,2025.632,2690.005,2025.632z"/>
			
				<linearGradient id="SVGID_00000178911782947003716390000005678836777301296831_" gradientUnits="userSpaceOnUse" x1="2495.7249" y1="1972.5854" x2="2523.0649" y2="1829.05">
				<stop  offset="0" style="stop-color:#FEBBBA"/>
				<stop  offset="1" style="stop-color:#FF928E"/>
			</linearGradient>
			<path style="fill:url(#SVGID_00000178911782947003716390000005678836777301296831_);" d="M2481.89,1769.469
				c0,0-8.531,90.205-16.043,116.887c-1.14,4.048,0.618,8.316,4.297,10.418c12.749,7.285,43.326,19.166,85.151-1.332
				c6.776-3.321,10.849-10.384,10.534-17.859l-3.686-87.167L2481.89,1769.469z"/>
			<g>
				
					<linearGradient id="SVGID_00000039109464680484029440000003635224700103481234_" gradientUnits="userSpaceOnUse" x1="2569.7031" y1="1709.244" x2="2413.7114" y2="1828.6016">
					<stop  offset="0" style="stop-color:#FEBBBA"/>
					<stop  offset="1" style="stop-color:#FF928E"/>
				</linearGradient>
				<path style="fill:url(#SVGID_00000039109464680484029440000003635224700103481234_);" d="M2563.983,1654.069
					c0,0,27.287,62.683,29.119,95.583c1.833,32.9,8.923,54.248-29.119,60.874c-38.042,6.625-70.089-12.325-87.449-45.098
					c0,0-27.202-50.499-21.1-71.179C2461.536,1673.568,2563.983,1654.069,2563.983,1654.069z"/>
				
					<linearGradient id="SVGID_00000138552854372941916750000009088040238512972469_" gradientUnits="userSpaceOnUse" x1="2459.8921" y1="1614.7394" x2="2605.1733" y2="1801.7886">
					<stop  offset="0" style="stop-color:#09005D"/>
					<stop  offset="1" style="stop-color:#1A0F91"/>
				</linearGradient>
				<path style="fill:url(#SVGID_00000138552854372941916750000009088040238512972469_);" d="M2489.533,1741.865l2.166-0.955
					c2.757-1.215,3.936-4.497,2.551-7.173c-5.364-10.365-15.822-34.116-2.312-39.656c17.411-7.141,86.376-21.205,101.256-45.676
					c14.301-23.519,1.63-53.878-17.413-62.514c-1.274-0.578-2.776-0.119-3.43,1.118l-1.587,3.003
					c-1.086,2.056-4.123,1.744-4.769-0.489l0,0c-0.621-2.143-3.472-2.56-4.655-0.667c-4.575,7.321-16.922,19.19-49.945,25.285
					c-46.93,8.661-77.958,27.654-78.73,60.083c-0.049,2.06-2.24,3.205-4,2.133c-3.465-2.112-9.01-3.103-16.422,3.129
					c-12.888,10.837-7.615,38.95,20.64,62.075c1.342,1.098,1.331,3.193-0.122,4.14c-5.122,3.334-12.758,11.269,7.028,21.845
					c20.464,10.939,35.746,10.042,41.63,9.071c1.464-0.242,2.407-1.659,2.088-3.108l-6.28-28.503
					c-0.355-1.613,0.872-3.141,2.524-3.141H2489.533z"/>
				
					<linearGradient id="SVGID_00000102526450225508684720000010552315777582236079_" gradientUnits="userSpaceOnUse" x1="2550.354" y1="1683.9563" x2="2394.3628" y2="1803.3135">
					<stop  offset="0" style="stop-color:#FEBBBA"/>
					<stop  offset="1" style="stop-color:#FF928E"/>
				</linearGradient>
				<path style="fill:url(#SVGID_00000102526450225508684720000010552315777582236079_);" d="M2490.715,1747.88
					c0,0-10.41-40.041-28.363-28.814c-17.952,11.226,9.316,44.864,23.749,46.363L2490.715,1747.88z"/>
			</g>
			<path style="fill:#F8A570;" d="M3072.469,1769.672c-0.974,0-1.955-0.322-2.77-0.983c-1.884-1.532-2.17-4.301-0.637-6.185
				c2.968-3.652,29.301-35.846,39.561-41.644c3.386-1.914,5.47-3.893,5.867-5.58c0.06-0.257,0.198-0.841-0.127-1.871l-29.76,5.957
				l-17.262,14.82c-1.844,1.579-4.618,1.365-6.198-0.472c-1.582-1.841-1.369-4.618,0.472-6.198l18.135-15.567
				c0.573-0.489,1.26-0.828,2-0.974l34.114-6.833c1.74-0.339,3.517,0.386,4.507,1.854c2.625,3.888,3.524,7.691,2.672,11.301
				c-1.006,4.275-4.309,7.944-10.097,11.215c-6.68,3.777-25.824,25.713-37.065,39.537
				C3075.013,1769.118,3073.747,1769.672,3072.469,1769.672z"/>
			
				<linearGradient id="SVGID_00000005957609853277730420000015798564783838295727_" gradientUnits="userSpaceOnUse" x1="2576.2771" y1="2363.8223" x2="2393.7666" y2="2271.4404">
				<stop  offset="0" style="stop-color:#FEBBBA"/>
				<stop  offset="1" style="stop-color:#FF928E"/>
			</linearGradient>
			<path style="fill:url(#SVGID_00000005957609853277730420000015798564783838295727_);" d="M2438.875,2289.323
				c0,0,10.262-17.103,34.206-17.103c23.944,0,51.309,44.468,51.309,44.468s-37.627,17.103-51.309,30.786
				C2459.399,2361.156,2438.875,2316.688,2438.875,2289.323z"/>
		</g>
	</g>
</g>
</svg>
