<?xml version="1.0" encoding="utf-8"?>
<!-- Generator: Adobe Illustrator 27.5.0, SVG Export Plug-In . SVG Version: 6.00 Build 0)  -->
<svg version="1.1" xmlns="http://www.w3.org/2000/svg" xmlns:xlink="http://www.w3.org/1999/xlink" x="0px" y="0px"
	 viewBox="0 0 500 500" style="enable-background:new 0 0 500 500;" xml:space="preserve">
<g id="BACKGROUND">
	<rect y="0.001" style="fill-rule:evenodd;clip-rule:evenodd;fill:#FCFCFC;" width="500" height="500"/>
</g>
<g id="OBJECTS">
	<g>
		<g>
			<path style="fill-rule:evenodd;clip-rule:evenodd;fill:#A75268;" d="M426.589,416.399H73.41c-3.628,0-6.598,2.97-6.598,6.599l0,0
				c0,3.628,2.969,6.6,6.598,6.6h20.75c3.724,0,6.77,3.046,6.77,6.767l0,0c0,3.724-3.046,6.77-6.77,6.77h-2.24
				c-2.312,0-4.205,1.893-4.205,4.206l0,0c0,2.313,1.892,4.203,4.205,4.203c89.845,0,195.3,0,285.145,0
				c3.78,0,6.871-3.091,6.871-6.871l0,0c0-3.778-3.093-6.871-6.871-6.871h-1.881c-2.257,0-4.103-1.846-4.103-4.102l0,0
				c0-2.257,1.846-4.102,4.103-4.102h51.404c3.628,0,6.598-2.972,6.598-6.6l0,0C433.187,419.369,430.217,416.399,426.589,416.399
				L426.589,416.399z M396.397,451.543c-3.751,0-6.82-3.069-6.82-6.82v-0.102c0-3.751,3.069-6.82,6.82-6.82l0,0
				c3.751,0,6.821,3.069,6.821,6.82v0.102C403.219,448.473,400.148,451.543,396.397,451.543L396.397,451.543z"/>
			<path style="fill-rule:evenodd;clip-rule:evenodd;fill:#F3DFE3;" d="M91.939,416.207c-41.187,0-74.885-33.7-74.885-74.886l0,0
				c0-41.186,33.698-74.887,74.885-74.887l0,0c17.415,0,31.663-14.248,31.663-31.663l0,0c0-17.416-14.248-31.664-31.663-31.664
				H88.17c-18.105,0-32.919-14.814-32.919-32.919v-0.001c0-18.106,14.814-32.92,32.919-32.92h11.561
				c7.048,0,12.816-5.768,12.816-12.815v-0.001c0-7.049-5.768-12.816-12.816-12.816h-8.495c-4.865,0-8.845-3.981-8.845-8.845v-0.001
				c0-4.865,3.98-8.845,8.845-8.845h57.102c7.645,0,13.899-6.254,13.899-13.899l0,0c0-7.644-6.254-13.898-13.899-13.898h-17.073
				c-4.865,0-8.845-3.98-8.845-8.845v0c0-4.865,3.98-8.845,8.845-8.845h250.062c6.348,0,11.543,5.195,11.543,11.542v0
				c0,6.347-5.195,11.542-11.543,11.542h-4.777c-9.974,0-18.135,8.161-18.135,18.135v0.001c0,9.974,8.161,18.135,18.135,18.135
				h55.006c6.348,0,11.541,5.195,11.541,11.541v0.001c0,6.348-5.193,11.541-11.541,11.541h-11.084
				c-9.197,0-16.723,7.526-16.723,16.724l0,0c0,9.198,7.525,16.724,16.723,16.724h15.085c23.625,0,42.956,19.33,42.956,42.956v0.001
				c0,23.625-19.331,42.956-42.956,42.956h-4.917c-22.725,0-41.318,18.593-41.318,41.316l0,0c0,22.726,18.594,41.317,41.318,41.317
				h10.648c22.912,0,41.659,18.745,41.659,41.658l0,0c0,22.913-18.747,41.658-41.659,41.658
				C322.747,416.207,210.479,416.207,91.939,416.207L91.939,416.207z M410.862,71.543c6.374,0,11.541-5.168,11.541-11.543
				c0-6.375-5.167-11.542-11.541-11.542c-6.375,0-11.542,5.167-11.542,11.542C399.32,66.374,404.487,71.543,410.862,71.543
				L410.862,71.543z M66.415,111.636c4.885,0,8.846-3.961,8.846-8.846c0-4.885-3.96-8.845-8.846-8.845
				c-4.885,0-8.845,3.96-8.845,8.845C57.569,107.676,61.53,111.636,66.415,111.636z"/>
		</g>
		<g>
			<path style="fill-rule:evenodd;clip-rule:evenodd;fill:#D48F9E;" d="M147.672,122.284c-0.066-0.119-0.553-1.033-0.684-2.592
				c-1.695-2.601-1.557-6.008-0.517-9.311c0.722-2.292,1.879-4.54,3.148-6.415c1.284-1.899,2.699-3.44,3.909-4.282
				c0.953-0.663,1.853-0.935,2.596-0.702c0.909,0.287,1.509,0.795,1.898,1.403c1.364,0.299,5.477,1.546,6.215,5.775
				c1.21,0.612,2.461,1.723,3.073,3.735c1.457,0.667,6.161,3.279,4.373,8.512c0.088,0.092,0.173,0.189,0.257,0.292
				c1.171,1.448,1.076,2.732,0.138,3.939c-0.771,0.993-2.164,1.875-3.866,2.748c-2.001,1.025-5.563,2.352-9.337,2.155
				c-2.527-0.131-5.144-0.938-7.459-2.949c-1.094-0.196-2.071-0.613-2.863-1.303c-0.31-0.269-0.588-0.578-0.835-0.931
				L147.672,122.284z"/>
			<path style="fill-rule:evenodd;clip-rule:evenodd;fill:#443E71;" d="M180.768,160.662c0.4,0.273,0.503,0.82,0.23,1.221
				c-0.273,0.401-0.819,0.504-1.22,0.23c-10.588-7.234-23.233-10.279-35.553-9.134c-12.103,1.124-23.894,6.296-33.111,15.513
				c-10.497,10.497-15.746,24.335-15.746,38.174c0,13.839,5.249,27.676,15.746,38.175l80.379,80.379c0.344,0.343,0.344,0.9,0,1.243
				c-0.344,0.343-0.901,0.343-1.245,0l-80.379-80.379c-10.841-10.841-16.262-25.131-16.262-39.419
				c0-14.289,5.421-28.578,16.262-39.418c9.515-9.516,21.693-14.855,34.197-16.017C156.783,150.05,169.837,153.193,180.768,160.662z
				"/>
			<path style="fill-rule:evenodd;clip-rule:evenodd;fill:#D48F9E;" d="M147.107,306.694c-5.034,5.986-11.751,13.972-25.974,10.62
				l-0.067-0.018c-0.465-0.137-0.729-0.626-0.592-1.093c3.937-13.15,11.775-17.577,18.982-18.576
				c-0.923-0.263-1.837-0.531-2.741-0.806l-0.019-0.006l-0.003-0.002c-1.319-0.399-2.616-0.816-3.884-1.253
				c-1.44-0.424-3.105,1.097-5.172,2.98c-4.096,3.739-9.562,8.727-19.275,5.013l-0.048-0.02c-0.442-0.2-0.64-0.721-0.44-1.161
				c3.887-8.639,9.593-11.134,14.648-11.295c-0.88-0.499-1.725-1.022-2.529-1.568c-2.443-0.033-19.839-0.939-17.735-20.114
				c0.051-0.482,0.484-0.833,0.966-0.781l0.101,0.017c10.231,1.667,12.415,8.694,14.052,13.964c0.543,1.749,1.017,3.274,1.692,4.213
				c0.157,0.018,0.312,0.076,0.447,0.18c2.272,1.768,4.979,3.281,7.984,4.619c0.78,0.183,1.511,0.399,2.176,0.625
				c-4.133-3.979-7.594-10.736-2.07-20.934c0.23-0.427,0.763-0.587,1.19-0.358l0.078,0.048c8.83,5.431,8.186,12.78,7.703,18.286
				c-0.244,2.779-0.441,5.019,0.766,5.899c2.772,0.841,5.645,1.614,8.552,2.357c1.108,0.108,2.153,0.272,3.113,0.461
				c-5.073-3.887-9.456-10.803-5.336-22.685c0.158-0.456,0.657-0.699,1.115-0.542l0.044,0.016l0.001-0.002
				c11.084,4.495,11.728,12.975,12.21,19.328c0.251,3.307,0.453,5.963,2.131,6.734c1.461,0.378,2.904,0.762,4.32,1.157
				c-3.762-3.422-6.624-9.127-3.087-18.275c0.175-0.452,0.684-0.676,1.135-0.504l0.064,0.028c8.975,4.03,9.258,11.014,9.468,16.249
				c0.107,2.662,0.194,4.801,1.478,5.426c1.457,0.557,2.85,1.143,4.165,1.772c0.022,0.01,0.043,0.02,0.065,0.031
				c0.383,0.184,0.76,0.37,1.13,0.563c2.731,1.412,5.481,3.518,7.299,6.232c1.506,2.253,2.372,4.917,2.072,7.941
				c-0.047,0.481-0.477,0.834-0.959,0.787c-0.482-0.047-0.835-0.478-0.788-0.96c0.255-2.578-0.49-4.855-1.783-6.791
				c-1.635-2.444-4.144-4.356-6.646-5.648c-0.332-0.173-0.671-0.341-1.016-0.508c-2.133-0.378-4.1,1.959-6.546,4.865
				c-4.644,5.524-10.842,12.893-23.973,9.8l-0.068-0.018c-0.465-0.139-0.73-0.629-0.591-1.093
				c4.277-14.291,13.545-17.425,20.978-17.372c-2.32-0.701-4.74-1.359-7.217-1.998c-0.088-0.02-0.461-0.102-1.038-0.267
				c-1.214-0.31-2.439-0.615-3.671-0.918C151.729,301.2,149.655,303.666,147.107,306.694z"/>
			<path style="fill-rule:evenodd;clip-rule:evenodd;fill:#D48F9E;" d="M95.86,217.363c-5.474,0.062-12.777,0.146-17.51-8.972
				l-0.021-0.045c-0.198-0.442,0.002-0.961,0.444-1.158c8.12-3.625,13.807-2.074,17.644,0.842c-0.103-0.23-0.205-0.459-0.306-0.687
				c-0.013-0.025-0.024-0.051-0.035-0.078c-0.361-0.82-0.707-1.637-1.032-2.45c-0.01-0.021-0.019-0.041-0.027-0.063
				c-0.324-0.848-1.823-1.03-3.692-1.256c-3.862-0.466-9.012-1.092-11.512-7.954c-0.015-0.034-0.027-0.07-0.038-0.107
				c-0.137-0.465,0.129-0.954,0.594-1.09c5.889-1.743,9.71-0.277,12.164,2.014c-0.06-0.366-0.111-0.731-0.153-1.092
				c-1.274-1.547-8.414-11.098,2.646-18.686c0.401-0.273,0.947-0.17,1.22,0.231l0.024,0.034c3.855,6.268,1.104,10.668-0.959,13.965
				c-0.633,1.011-1.185,1.895-1.386,2.605c0.05,0.104,0.081,0.219,0.086,0.341c0.098,1.949,0.516,4.013,1.158,6.153
				c0.08,0.156,0.157,0.311,0.23,0.463c0.511-3.817,2.823-8.113,10.146-9.706c0.475-0.102,0.943,0.2,1.046,0.674l0.017,0.108
				c1.142,7.207-3.064,10.231-6.219,12.499c-1.471,1.056-2.66,1.912-2.632,2.777c0.797,1.8,1.674,3.622,2.58,5.449
				c0.226,0.321,0.437,0.641,0.634,0.955c0.055-4.279,2.059-9.221,9.67-12.235c0.452-0.179,0.963,0.043,1.142,0.495
				c0.015,0.037,0.026,0.074,0.035,0.112c2.647,7.941-1.553,12.151-4.703,15.308c-1.547,1.549-2.791,2.797-2.499,3.87
				c0.299,0.607,0.593,1.211,0.88,1.812c0.395-3.332,2.375-6.945,8.288-9.046c0.457-0.162,0.96,0.078,1.122,0.536l0.013,0.041
				c1.994,6.686-1.61,10.049-4.31,12.57c-1.278,1.193-2.304,2.151-2.099,2.946c0.359,0.997,0.674,1.977,0.936,2.935l0.012,0.037
				c0.01,0.033,0.017,0.065,0.023,0.097c1.1,4.102,1.208,7.821-0.457,10.896c-0.229,0.428-0.762,0.587-1.189,0.358
				c-0.428-0.23-0.587-0.763-0.358-1.19c1.411-2.605,1.307-5.878,0.327-9.556c-0.698-1.124-2.728-1.101-5.246-1.072
				c-5.055,0.058-11.802,0.134-16.178-8.295l-0.021-0.045c-0.198-0.442,0.001-0.961,0.444-1.158c8.571-3.827,14.21-1.41,17.72,1.999
				c-0.477-1.027-0.979-2.067-1.497-3.117c-0.015-0.026-0.027-0.053-0.04-0.081c-0.049-0.093-0.151-0.291-0.283-0.572
				c-0.39-0.785-0.786-1.574-1.188-2.366C100.65,217.308,98.501,217.332,95.86,217.363z"/>
			<path style="fill-rule:evenodd;clip-rule:evenodd;fill:#443E71;" d="M189.269,163.345c-1.766-1.744-5.24-3.352-11.119-3.941
				c-0.046-0.006-0.09-0.01-0.134-0.011c-0.462-0.008-0.711,0.305-0.558,0.699c1.935,4.939,4.482,7.58,6.807,8.719
				c2.483,1.216,4.679,0.778,5.78-0.429C191.141,167.179,191.151,165.205,189.269,163.345z"/>
			<path style="fill-rule:evenodd;clip-rule:evenodd;fill:#443E71;" d="M175.318,162.735c-0.952-2.291-3.534-5.119-8.726-7.936
				c-0.039-0.023-0.08-0.045-0.121-0.063c-0.421-0.186-0.772,0.007-0.784,0.429c-0.127,5.303,1.199,8.725,2.902,10.674
				c1.818,2.083,4.013,2.528,5.494,1.842C175.562,166.997,176.335,165.18,175.318,162.735z"/>
			<path style="fill-rule:evenodd;clip-rule:evenodd;fill:#443E71;" d="M161.625,159.01c-1.073-2.239-3.798-4.926-9.132-7.468
				c-0.04-0.021-0.081-0.04-0.122-0.056c-0.431-0.163-0.772,0.047-0.761,0.469c0.151,5.303,1.654,8.65,3.457,10.508
				c1.926,1.984,4.141,2.314,5.584,1.551C162.091,163.253,162.768,161.398,161.625,159.01z"/>
			<path style="fill-rule:evenodd;clip-rule:evenodd;fill:#443E71;" d="M181.49,150.601c-2.479-0.121-6.14,1.001-10.91,4.487
				c-0.037,0.025-0.073,0.052-0.106,0.082c-0.349,0.302-0.326,0.702,0.05,0.892c4.738,2.387,8.398,2.654,10.89,1.95
				c2.661-0.752,4.002-2.544,4.017-4.176C185.444,152.206,184.134,150.73,181.49,150.601z"/>
			<path style="fill-rule:evenodd;clip-rule:evenodd;fill:#443E71;" d="M167.387,144.951c-2.454,0.372-5.821,2.194-9.809,6.553
				c-0.031,0.033-0.062,0.066-0.089,0.102c-0.282,0.364-0.181,0.751,0.226,0.865c5.116,1.403,8.756,0.943,11.06-0.239
				c2.459-1.263,3.422-3.286,3.113-4.888C171.581,145.743,170.004,144.555,167.387,144.951z"/>
			<path style="fill-rule:evenodd;clip-rule:evenodd;fill:#443E71;" d="M135,255.983c0.791,2.352,0.709,6.18-1.346,11.719
				c-0.014,0.045-0.03,0.086-0.049,0.125c-0.195,0.42-0.585,0.506-0.872,0.196c-3.587-3.91-4.841-7.357-4.842-9.946
				c-0.001-2.766,1.357-4.545,2.924-5.005C132.378,252.616,134.157,253.475,135,255.983z"/>
			<path style="fill-rule:evenodd;clip-rule:evenodd;fill:#443E71;" d="M123.312,244.892c0.791,2.354,0.71,6.18-1.346,11.719
				c-0.014,0.044-0.029,0.087-0.049,0.126c-0.195,0.417-0.585,0.505-0.872,0.193c-3.587-3.907-4.84-7.356-4.842-9.945
				c-0.001-2.766,1.357-4.545,2.925-5.003C120.69,241.524,122.469,242.383,123.312,244.892z"/>
			<path style="fill-rule:evenodd;clip-rule:evenodd;fill:#443E71;" d="M114.353,262.835c2.303,0.924,6.127,1.064,11.778-0.668
				c0.043-0.012,0.086-0.025,0.128-0.041c0.428-0.173,0.537-0.559,0.244-0.862c-3.696-3.806-7.066-5.255-9.651-5.406
				c-2.76-0.16-4.616,1.093-5.163,2.631C111.143,260.021,111.897,261.847,114.353,262.835z"/>
			<path style="fill-rule:evenodd;clip-rule:evenodd;fill:#7F6A81;" d="M147.462,121.516c0.382-0.299,0.933-0.231,1.231,0.15
				c0.299,0.382,0.23,0.933-0.151,1.232c-8.396,6.563-10.596,16.558-12.724,26.228c-3.408,15.487-6.641,30.178-33.555,30.157
				c-0.484,0-0.876-0.392-0.876-0.877c0-0.483,0.393-0.876,0.876-0.876c25.498,0.02,28.583-14.001,31.836-28.782
				C136.292,138.778,138.56,128.474,147.462,121.516z"/>
			<path style="fill-rule:evenodd;clip-rule:evenodd;fill:#A75268;" d="M147.23,122.629c-0.069-0.124-0.573-1.072-0.709-2.691
				c-1.76-2.7-1.617-6.237-0.538-9.665c0.75-2.379,1.952-4.713,3.268-6.659c1.333-1.973,2.802-3.571,4.059-4.445
				c0.988-0.688,1.922-0.971,2.693-0.728c0.944,0.297,1.567,0.826,1.97,1.457c1.417,0.312,5.686,1.604,6.452,5.995
				c1.256,0.636,2.555,1.788,3.191,3.878c1.511,0.693,6.396,3.404,4.54,8.837c0.091,0.095,0.18,0.196,0.267,0.303
				c1.216,1.503,1.117,2.836,0.144,4.09c-0.8,1.03-2.247,1.947-4.014,2.853c-2.078,1.064-5.775,2.441-9.693,2.237
				c-2.623-0.137-5.34-0.975-7.744-3.062c-1.135-0.203-2.15-0.636-2.971-1.352c-0.32-0.279-0.61-0.601-0.866-0.967L147.23,122.629
				L147.23,122.629z M168.601,112.396c0.79,1.287,0.967,2.79-0.162,4.65c0.68,0.04,1.45,0.174,2.192,0.502
				C171.229,115.079,169.896,113.399,168.601,112.396L168.601,112.396z M170.616,119.573c-0.025-0.018-0.05-0.037-0.073-0.058
				c-1.22-0.929-2.911-0.762-3.531-0.659c-0.682,0.696-1.535,1.401-2.5,2.073c-2.372,1.65-5.472,3.13-8.414,3.822
				c-0.621,0.146-1.236,0.256-1.837,0.327c1.521,0.808,3.123,1.176,4.688,1.258c3.542,0.185,6.91-1.073,8.807-2.045
				c1.559-0.799,2.808-1.573,3.422-2.364c0.438-0.566,0.47-1.186-0.117-1.91C170.924,119.849,170.775,119.702,170.616,119.573
				L170.616,119.573z M158.614,101.897c0.066,0.672,0.021,1.326-0.053,1.851c0.187,0.019,0.373,0.048,0.559,0.089
				c1.329,0.294,2.08,0.74,2.617,1.295c0.184,0.016,0.417,0.045,0.688,0.095C161.668,103.279,159.873,102.334,158.614,101.897
				L158.614,101.897z M163.21,107.279c0.301,0.421,0.685,0.861,1.248,1.302c0.254,0.198,0.511,0.391,0.772,0.587l0.335,0.252
				C164.956,108.255,164.038,107.623,163.21,107.279L163.21,107.279z M146.978,115.867c0.274-0.943,0.684-1.97,1.274-3.073
				c1.613-3.01,3.413-5.471,5.253-7.052c1.069-0.918,2.163-1.551,3.254-1.84c0.206-1.008,0.446-3.24-1.279-3.783
				c-0.213-0.067-0.626,0.118-1.165,0.494c-1.088,0.756-2.393,2.189-3.606,3.985c-1.232,1.822-2.353,3.995-3.047,6.198
				C147.117,112.529,146.833,114.276,146.978,115.867L146.978,115.867z M148.226,119.422c0.024,0.102,0.029,0.206,0.017,0.308
				c0.09,1.17,0.425,1.858,0.504,2.008c0.164,0.229,0.35,0.432,0.554,0.609c0.616,0.537,1.414,0.851,2.33,0.987l0.021,0.002
				c1.197,0.174,2.593,0.043,4.047-0.299c2.721-0.639,5.599-2.016,7.81-3.553c1.063-0.74,1.964-1.512,2.606-2.249
				c2.158-2.479,1.132-4.117-0.401-5.452c-0.513-0.447-1.033-0.837-1.535-1.214c-0.277-0.207-0.55-0.413-0.799-0.607
				c-1.199-0.937-1.726-1.809-2.188-2.574c-0.503-0.831-0.906-1.498-2.449-1.839c-0.362-0.08-0.735-0.09-1.119-0.034l0,0
				l-0.02,0.003l-0.005,0.001c-0.946,0.146-1.943,0.69-2.952,1.558c-1.673,1.438-3.335,3.723-4.846,6.542
				C148.479,116.085,148.177,118.043,148.226,119.422z"/>
			<path style="fill-rule:evenodd;clip-rule:evenodd;fill:#9FBBC1;" d="M134.606,151.006c0.285-1.006,0.474-2.143,0.607-3.175
				c0.299-2.336,0.323-4.757-0.044-7.086c-1.158-7.321-5.87-11.735-13.093-13.172c-0.566-0.113-1.121,0.181-1.346,0.712
				c-2.873,6.782-1.871,13.161,3.533,18.233c1.719,1.614,3.735,2.956,5.836,4.021c0.928,0.471,1.974,0.953,2.966,1.283
				c0.324,0.108,0.643,0.082,0.945-0.078C134.313,151.583,134.513,151.335,134.606,151.006z"/>
			<path style="fill-rule:evenodd;clip-rule:evenodd;fill:#9FBBC1;" d="M123.499,172.615c0.407-0.963,0.971-1.968,1.512-2.857
				c1.227-2.01,2.724-3.915,4.467-5.502c5.481-4.989,11.919-5.486,18.454-2.089c0.512,0.266,0.761,0.841,0.605,1.397
				c-2,7.089-6.771,11.439-14.16,12.018c-2.351,0.184-4.763-0.031-7.068-0.513c-1.019-0.214-2.138-0.491-3.118-0.854
				c-0.32-0.119-0.552-0.339-0.688-0.652C123.368,173.249,123.367,172.93,123.499,172.615z"/>
			<path style="fill-rule:evenodd;clip-rule:evenodd;fill:#9FBBC1;" d="M114.247,177.234c0.489-0.185,1.001-0.448,1.454-0.703
				c1.027-0.576,2.006-1.288,2.831-2.129c2.593-2.647,2.959-5.853,1.384-9.18c-0.124-0.261-0.406-0.396-0.688-0.328
				c-3.578,0.869-5.838,3.172-6.263,6.852c-0.135,1.171-0.072,2.38,0.127,3.54c0.088,0.513,0.205,1.076,0.369,1.572
				c0.053,0.163,0.159,0.282,0.313,0.356C113.928,177.289,114.087,177.295,114.247,177.234z"/>
			<path style="fill-rule:evenodd;clip-rule:evenodd;fill:#9FBBC1;" d="M138.153,138.691c0.512,0.102,1.086,0.151,1.606,0.176
				c1.175,0.057,2.383-0.028,3.528-0.304c3.601-0.868,5.614-3.391,6.043-7.047c0.033-0.287-0.135-0.551-0.409-0.642
				c-3.493-1.162-6.632-0.409-8.944,2.485c-0.735,0.921-1.324,1.979-1.771,3.068c-0.198,0.481-0.396,1.022-0.522,1.529
				c-0.04,0.166-0.015,0.324,0.077,0.468C137.854,138.568,137.986,138.658,138.153,138.691z"/>
		</g>
		<g>
			<path style="fill-rule:evenodd;clip-rule:evenodd;fill:#7F6A81;" d="M372.538,140.22c-0.167-0.456,0.067-0.961,0.524-1.128
				c0.454-0.167,0.961,0.067,1.127,0.523c0.024,0.065,8.257,22.575,15.855,28.938c0.372,0.312,0.42,0.866,0.109,1.238
				c-0.313,0.372-0.866,0.421-1.238,0.109C380.953,163.232,372.563,140.286,372.538,140.22z"/>
			<path style="fill-rule:evenodd;clip-rule:evenodd;fill:#D48F9E;" d="M353.462,127.155c0.303-5.569,5.688-6.235,7.301-6.309
				c1.332-1.651,2.922-2.217,4.286-2.333c2.285-3.68,6.604-3.292,7.995-3.059c0.592-0.422,1.346-0.672,2.303-0.596
				c0.784,0.061,1.523,0.656,2.164,1.635c0.813,1.244,1.555,3.219,2.04,5.483c0.478,2.234,0.713,4.774,0.523,7.185
				c-0.273,3.483-1.432,6.723-4,8.516c-0.629,1.246-1.328,1.914-1.554,2.11c-0.041,0.04-0.086,0.077-0.136,0.109
				c-0.354,0.233-0.734,0.416-1.133,0.554c-0.999,0.346-2.067,0.368-3.16,0.141c-2.928,1.009-5.683,0.776-8.098-0.055
				c-3.605-1.24-6.438-3.827-7.923-5.543c-1.263-1.458-2.232-2.81-2.577-4.029c-0.422-1.483-0.027-2.721,1.615-3.632
				C353.227,127.267,353.345,127.208,353.462,127.155z"/>
			<path style="fill-rule:evenodd;clip-rule:evenodd;fill:#443E71;" d="M318.882,162.113c-0.401,0.274-0.948,0.17-1.222-0.23
				c-0.271-0.401-0.169-0.947,0.232-1.221c10.931-7.469,23.984-10.612,36.702-9.431c12.503,1.162,24.681,6.501,34.197,16.017
				c10.841,10.84,16.261,25.13,16.261,39.418c0,14.289-5.42,28.578-16.261,39.419l-80.38,80.379c-0.345,0.343-0.9,0.343-1.245,0
				c-0.343-0.343-0.343-0.9,0-1.243l80.379-80.379c10.498-10.499,15.745-24.336,15.745-38.175c0-13.838-5.247-27.677-15.745-38.174
				c-9.218-9.218-21.008-14.389-33.11-15.513C342.115,151.833,329.47,154.879,318.882,162.113z"/>
			<path style="fill-rule:evenodd;clip-rule:evenodd;fill:#D48F9E;" d="M366.001,304.04c-9.401,4.13-15.039-0.519-19.262-4.001
				c-2.042-1.685-3.703-3.054-5.066-2.73c-0.779,0.353-1.555,0.703-2.321,1.058c-0.348,0.17-0.589,0.278-0.681,0.316
				c-0.023,0.012-0.047,0.021-0.071,0.031c-1.057,0.491-2.097,0.985-3.108,1.482c4.87-0.454,10.777,1.201,15.054,9.563
				c0.219,0.429,0.049,0.958-0.382,1.18l-0.048,0.023c-8.693,3.817-13.9-0.477-17.803-3.694c-1.944-1.603-3.512-2.896-4.761-2.45
				c-3.065,2.248-5.196,4.73-5.731,7.639c-0.088,0.479-0.546,0.795-1.023,0.707c-0.479-0.086-0.794-0.544-0.706-1.022
				c0.63-3.438,3.045-6.262,6.473-8.768c0.036-0.031,0.075-0.061,0.117-0.086c0.806-0.583,1.668-1.149,2.574-1.702
				c0.655-0.489,0.458-1.88,0.21-3.611c-0.52-3.644-1.211-8.499,4.475-12.45c0.03-0.023,0.063-0.047,0.097-0.068
				c0.415-0.253,0.955-0.121,1.208,0.292c3.285,5.345,2.559,9.401,0.774,12.244c0.601-0.288,1.208-0.574,1.822-0.86
				c0.901-0.648,0.715-2.401,0.481-4.581c-0.472-4.439-1.104-10.36,5.967-14.889l0.075-0.047c0.421-0.239,0.957-0.092,1.196,0.329
				c4.039,7.124,2.497,12.232-0.145,15.6c0.349-0.122,0.711-0.237,1.087-0.347c1.854-0.854,3.683-1.724,5.435-2.627
				c0.564-0.654,0.174-2.068-0.309-3.814c-1.035-3.749-2.415-8.748,3.013-13.648l0.07-0.063c0.378-0.306,0.933-0.245,1.237,0.133
				c4.703,5.835,3.808,10.63,1.81,13.925c0.15-0.072,0.304-0.144,0.462-0.214c1.512-1.034,2.872-2.125,4.029-3.286l0.015-0.017
				l0.016-0.014c0.247-0.248,0.483-0.499,0.711-0.754c0.081-0.092,0.177-0.162,0.28-0.209c0.289-0.68,0.413-1.714,0.555-2.897
				c0.462-3.86,1.08-9.016,8.016-11.479l0.042-0.014c0.465-0.137,0.953,0.128,1.093,0.59c3.852,12.853-7.709,15.806-9.663,16.209
				c-0.261,0.256-0.53,0.507-0.808,0.758c3.349-0.247,7.247,1.007,10.74,6.061c0.276,0.399,0.177,0.945-0.223,1.222
				c-0.032,0.023-0.065,0.043-0.1,0.059c-6.247,3.775-10.647,1.03-13.946-1.028c-1.601-0.997-2.884-1.796-3.671-1.337
				c-0.021,0.012-0.042,0.023-0.063,0.033c-0.755,0.423-1.526,0.836-2.312,1.243c-0.037,0.023-0.078,0.045-0.119,0.061
				c-0.218,0.114-0.438,0.228-0.657,0.339c4.82,0.134,10.224,2.49,14.274,10.409c0.221,0.431,0.051,0.96-0.381,1.181L366.001,304.04
				z"/>
			<path style="fill-rule:evenodd;clip-rule:evenodd;fill:#D48F9E;" d="M430.311,196.319c-5.887,11.343-14.991,11.238-21.815,11.16
				c-3.395-0.039-6.159-0.071-7.305,1.415c-0.505,0.999-1.006,1.994-1.498,2.983c-0.177,0.378-0.309,0.634-0.368,0.745
				c-0.012,0.027-0.025,0.053-0.04,0.079c-0.856,1.736-1.679,3.454-2.439,5.14c4.274-4.7,11.514-8.518,22.946-3.415
				c0.441,0.198,0.641,0.717,0.443,1.159l-0.022,0.044c-5.438,10.477-13.843,10.381-20.141,10.31
				c-3.258-0.037-5.879-0.067-6.808,1.481c-1.254,4.691-1.39,8.875,0.42,12.216c0.23,0.427,0.07,0.96-0.357,1.189
				c-0.427,0.23-0.961,0.07-1.189-0.358c-2.064-3.813-1.925-8.445-0.548-13.565c0.006-0.029,0.014-0.059,0.023-0.086l-0.003-0.001
				l0.02-0.066c0.328-1.199,0.723-2.426,1.173-3.674c0.298-1.132-1.039-2.378-2.702-3.932c-3.352-3.128-7.824-7.303-5.358-15.577
				l0.015-0.041c0.16-0.458,0.663-0.698,1.12-0.537c7.81,2.778,10.083,7.681,10.342,12.021c0.477-1.012,0.971-2.032,1.477-3.058
				c0.42-1.479-1.191-3.094-3.196-5.103c-3.921-3.93-9.15-9.171-5.853-19.036c0.008-0.037,0.021-0.074,0.035-0.111
				c0.178-0.452,0.689-0.674,1.142-0.495c9.936,3.934,12.181,10.516,12.004,16.004c0.364-0.616,0.771-1.256,1.227-1.903
				c1.152-2.322,2.266-4.639,3.278-6.927c0.082-1.226-1.474-2.344-3.401-3.729c-3.92-2.817-9.148-6.577-7.725-15.514l0.017-0.107
				c0.103-0.475,0.57-0.776,1.046-0.675c9.6,2.089,12.254,7.923,12.667,12.842c0.187-0.434,0.397-0.884,0.635-1.342
				c0.817-2.72,1.351-5.344,1.475-7.824c0.006-0.15,0.052-0.29,0.124-0.41c-0.242-0.949-0.965-2.103-1.792-3.425
				c-2.562-4.096-5.979-9.561-1.205-17.323l0.023-0.034c0.273-0.401,0.819-0.503,1.221-0.231c13.843,9.499,4.691,21.473,3.24,23.219
				c-0.081,0.703-0.19,1.413-0.323,2.132c3.016-3.11,7.868-5.264,15.578-2.981c0.465,0.135,0.732,0.624,0.595,1.09
				c-0.012,0.037-0.025,0.072-0.039,0.106c-3.093,8.512-9.495,9.288-14.296,9.869c-2.426,0.294-4.37,0.529-4.828,1.725
				c-0.008,0.022-0.018,0.043-0.027,0.064c-0.409,1.024-0.846,2.054-1.302,3.089c-0.011,0.028-0.022,0.056-0.036,0.082
				c-0.257,0.581-0.518,1.163-0.787,1.746c4.776-3.995,12.061-6.383,22.699-1.634c0.442,0.197,0.641,0.717,0.444,1.159
				L430.311,196.319z"/>
			<path style="fill-rule:evenodd;clip-rule:evenodd;fill:#443E71;" d="M309.391,163.345c1.766-1.744,5.239-3.352,11.119-3.941
				c0.045-0.006,0.09-0.01,0.134-0.011c0.46-0.008,0.711,0.305,0.558,0.699c-1.935,4.939-4.481,7.58-6.807,8.719
				c-2.482,1.216-4.68,0.778-5.779-0.429C307.519,167.179,307.508,165.205,309.391,163.345z"/>
			<path style="fill-rule:evenodd;clip-rule:evenodd;fill:#443E71;" d="M323.341,162.735c0.952-2.291,3.532-5.119,8.728-7.936
				c0.038-0.023,0.078-0.045,0.119-0.063c0.42-0.186,0.772,0.007,0.784,0.429c0.128,5.303-1.198,8.725-2.901,10.674
				c-1.819,2.083-4.014,2.528-5.494,1.842C323.098,166.997,322.324,165.18,323.341,162.735z"/>
			<path style="fill-rule:evenodd;clip-rule:evenodd;fill:#443E71;" d="M337.034,159.01c1.071-2.239,3.797-4.926,9.132-7.468
				c0.04-0.021,0.081-0.04,0.123-0.056c0.431-0.163,0.771,0.047,0.761,0.469c-0.151,5.303-1.655,8.65-3.458,10.508
				c-1.926,1.984-4.141,2.314-5.584,1.551C336.568,163.253,335.892,161.398,337.034,159.01z"/>
			<path style="fill-rule:evenodd;clip-rule:evenodd;fill:#443E71;" d="M317.169,150.601c2.48-0.121,6.14,1.001,10.91,4.487
				c0.037,0.025,0.073,0.052,0.106,0.082c0.35,0.302,0.326,0.702-0.05,0.892c-4.739,2.387-8.398,2.654-10.89,1.95
				c-2.661-0.752-4.003-2.544-4.018-4.176C313.215,152.206,314.525,150.73,317.169,150.601z"/>
			<path style="fill-rule:evenodd;clip-rule:evenodd;fill:#443E71;" d="M331.271,144.951c2.454,0.372,5.82,2.194,9.809,6.553
				c0.032,0.033,0.062,0.066,0.089,0.102c0.282,0.364,0.182,0.751-0.226,0.865c-5.116,1.403-8.756,0.943-11.06-0.239
				c-2.46-1.263-3.423-3.286-3.113-4.888C327.078,145.743,328.655,144.555,331.271,144.951z"/>
			<path style="fill-rule:evenodd;clip-rule:evenodd;fill:#443E71;" d="M368.462,251.158c-0.791,2.353-0.709,6.181,1.346,11.72
				c0.015,0.043,0.03,0.086,0.049,0.125c0.195,0.417,0.587,0.506,0.873,0.194c3.588-3.908,4.841-7.357,4.842-9.944
				c0.002-2.766-1.357-4.545-2.923-5.004C371.084,247.791,369.307,248.65,368.462,251.158z"/>
			<path style="fill-rule:evenodd;clip-rule:evenodd;fill:#443E71;" d="M380.15,240.068c-0.792,2.352-0.709,6.179,1.346,11.719
				c0.014,0.043,0.03,0.087,0.049,0.126c0.194,0.417,0.586,0.505,0.872,0.193c3.587-3.908,4.84-7.357,4.842-9.945
				c0.001-2.766-1.357-4.546-2.924-5.004C382.771,236.7,380.994,237.559,380.15,240.068z"/>
			<path style="fill-rule:evenodd;clip-rule:evenodd;fill:#443E71;" d="M389.109,258.01c-2.304,0.924-6.128,1.063-11.777-0.668
				c-0.044-0.012-0.087-0.026-0.128-0.044c-0.428-0.17-0.538-0.554-0.244-0.859c3.695-3.806,7.065-5.258,9.65-5.407
				c2.76-0.162,4.615,1.093,5.163,2.631C392.32,255.197,391.564,257.023,389.109,258.01z"/>
			<path style="fill-rule:evenodd;clip-rule:evenodd;fill:#A75268;" d="M373.657,138.782c0.157-0.135,0.699-0.646,1.197-1.653
				c0.027-0.105,0.073-0.204,0.137-0.293c0.559-1.261,1.01-3.189,0.709-5.965c-0.348-3.183-1.033-5.924-2.046-7.884
				c-0.862-1.666-1.942-2.729-3.225-2.944c-1.563-0.262-2.188,0.205-2.963,0.786c-0.72,0.541-1.539,1.155-2.99,1.573
				c-0.249,0.071-0.605,0.167-0.969,0.263c-0.638,0.169-1.298,0.346-1.879,0.546c-1.923,0.664-3.488,1.801-2.413,4.911
				c0.024,0.072,0.05,0.143,0.077,0.217l0.002,0.004c0.015,0.032,0.028,0.066,0.04,0.099c0.325,0.837,0.826,1.773,1.46,2.74
				c1.474,2.253,3.628,4.606,5.91,6.218c1.197,0.845,2.42,1.482,3.577,1.777c0.056,0.008,0.111,0.021,0.163,0.04
				c0.872,0.2,1.704,0.2,2.453-0.061C373.152,139.068,373.406,138.944,373.657,138.782L373.657,138.782z M358.733,122.697
				c-1.218,0.897-1.947,2.225-1.598,4.373c-0.644-0.218-1.411-0.382-2.224-0.354C355.284,124.198,357.153,123.141,358.733,122.697
				L358.733,122.697z M353.104,127.128c0.311-5.731,5.854-6.417,7.512-6.493c1.372-1.7,3.009-2.282,4.413-2.401
				c2.351-3.787,6.795-3.389,8.229-3.147c0.608-0.435,1.384-0.692,2.367-0.615c0.809,0.063,1.569,0.676,2.229,1.684
				c0.837,1.281,1.602,3.313,2.1,5.643c0.491,2.301,0.732,4.914,0.539,7.396c-0.281,3.584-1.475,6.919-4.118,8.764
				c-0.647,1.281-1.366,1.97-1.6,2.172c-0.041,0.042-0.087,0.079-0.14,0.112c-0.366,0.24-0.756,0.428-1.166,0.57
				c-1.027,0.355-2.127,0.378-3.253,0.145c-3.012,1.039-5.848,0.798-8.332-0.057c-3.711-1.276-6.626-3.939-8.154-5.705
				c-1.3-1.501-2.298-2.891-2.654-4.146c-0.433-1.526-0.027-2.8,1.663-3.738C352.861,127.244,352.982,127.184,353.104,127.128
				L353.104,127.128z M371.916,116.702c-1.329-0.066-3.352,0.137-4.786,1.664c0.269,0.055,0.498,0.116,0.675,0.17
				c0.707-0.316,1.569-0.451,2.914-0.226c0.189,0.031,0.373,0.074,0.555,0.127C371.402,117.923,371.605,117.3,371.916,116.702
				L371.916,116.702z M365.646,119.969c-0.435,0.276-0.957,0.541-1.65,0.74c-0.364,0.104-0.648,0.181-0.936,0.257l-0.403,0.108
				C363.659,120.22,364.749,119.978,365.646,119.969L365.646,119.969z M377.479,134.009c0.098-0.976,0.103-2.081-0.032-3.325
				c-0.369-3.393-1.117-6.348-2.231-8.502c-0.648-1.255-1.427-2.252-2.333-2.93c0.186-1.006,0.795-3.169,2.606-3.026
				c0.222,0.017,0.534,0.343,0.895,0.893c0.725,1.109,1.399,2.925,1.852,5.043c0.46,2.149,0.686,4.585,0.504,6.894
				C378.597,130.866,378.205,132.589,377.479,134.009L377.479,134.009z M357.786,129.292c0.372,0.904,0.898,1.875,1.537,2.851
				c1.581,2.417,3.901,4.949,6.371,6.692c0.52,0.366,1.046,0.698,1.577,0.989c-1.713,0.18-3.335-0.078-4.815-0.588
				c-3.353-1.154-6.005-3.58-7.398-5.189c-1.146-1.325-2.017-2.511-2.289-3.473c-0.195-0.69,0.008-1.277,0.823-1.729
				C355.25,127.925,357.156,128.91,357.786,129.292z"/>
			<path style="fill-rule:evenodd;clip-rule:evenodd;fill:#9FBBC1;" d="M382.784,161.206c-0.482-0.927-0.898-2.001-1.236-2.986
				c-0.769-2.226-1.283-4.593-1.395-6.948c-0.352-7.403,3.365-12.682,10.148-15.554c0.532-0.225,1.133-0.051,1.462,0.424
				c4.189,6.058,4.503,12.507,0.239,18.57c-1.356,1.929-3.058,3.651-4.898,5.121c-0.813,0.65-1.74,1.335-2.645,1.859
				c-0.296,0.171-0.613,0.21-0.941,0.114C383.19,161.712,382.943,161.509,382.784,161.206z"/>
			<path style="fill-rule:evenodd;clip-rule:evenodd;fill:#9FBBC1;" d="M377.745,151.109c-0.48,0.204-1.032,0.368-1.537,0.498
				c-1.14,0.294-2.339,0.457-3.517,0.418c-3.703-0.119-6.185-2.181-7.347-5.675c-0.091-0.273,0.02-0.566,0.271-0.711
				c3.185-1.846,6.41-1.746,9.262,0.62c0.906,0.753,1.697,1.669,2.356,2.644c0.291,0.432,0.596,0.921,0.82,1.392
				c0.074,0.154,0.081,0.314,0.02,0.474C378.013,150.927,377.902,151.042,377.745,151.109z"/>
		</g>
		<g>
			<g>
				<path style="fill-rule:evenodd;clip-rule:evenodd;fill:#E8BFC5;" d="M345.77,80.436h-3.685c-0.887,0-1.611-0.725-1.611-1.611
					v-3.683c0-0.887,0.725-1.611,1.611-1.611h3.685c0.886,0,1.61,0.724,1.61,1.611v3.683
					C347.38,79.712,346.655,80.436,345.77,80.436z"/>
				<path style="fill-rule:evenodd;clip-rule:evenodd;fill:#FFFFFF;" d="M332.994,80.436h-3.683c-0.887,0-1.611-0.725-1.611-1.611
					v-3.683c0-0.887,0.725-1.611,1.611-1.611h3.683c0.887,0,1.611,0.724,1.611,1.611v3.683
					C334.605,79.712,333.881,80.436,332.994,80.436z"/>
				<path style="fill-rule:evenodd;clip-rule:evenodd;fill:#E8BFC5;" d="M320.221,80.436h-3.683c-0.887,0-1.611-0.725-1.611-1.611
					v-3.683c0-0.887,0.725-1.611,1.611-1.611h3.683c0.888,0,1.611,0.724,1.611,1.611v3.683
					C321.832,79.712,321.108,80.436,320.221,80.436z"/>
				<path style="fill-rule:evenodd;clip-rule:evenodd;fill:#FFFFFF;" d="M307.447,80.436h-3.683c-0.888,0-1.612-0.725-1.612-1.611
					v-3.683c0-0.887,0.725-1.611,1.612-1.611h3.683c0.885,0,1.611,0.724,1.611,1.611v3.683
					C309.059,79.712,308.332,80.436,307.447,80.436z"/>
				<path style="fill-rule:evenodd;clip-rule:evenodd;fill:#E8BFC5;" d="M294.673,80.436h-3.684c-0.886,0-1.611-0.725-1.611-1.611
					v-3.683c0-0.887,0.726-1.611,1.611-1.611h3.684c0.887,0,1.611,0.724,1.611,1.611v3.683
					C296.284,79.712,295.56,80.436,294.673,80.436z"/>
				<path style="fill-rule:evenodd;clip-rule:evenodd;fill:#FFFFFF;" d="M319.759,66.509h-3.684c-0.887,0-1.611-0.724-1.611-1.61
					v-3.684c0-0.886,0.725-1.61,1.611-1.61h3.684c0.886,0,1.609,0.724,1.609,1.61v3.684
					C321.368,65.785,320.645,66.509,319.759,66.509z"/>
				<path style="fill-rule:evenodd;clip-rule:evenodd;fill:#E8BFC5;" d="M306.985,66.509h-3.685c-0.887,0-1.61-0.724-1.61-1.61
					v-3.684c0-0.886,0.724-1.61,1.61-1.61h3.685c0.887,0,1.61,0.724,1.61,1.61v3.684C308.596,65.785,307.872,66.509,306.985,66.509z
					"/>
				<path style="fill-rule:evenodd;clip-rule:evenodd;fill:#FFFFFF;" d="M294.211,66.509h-3.684c-0.888,0-1.611-0.724-1.611-1.61
					v-3.684c0-0.886,0.724-1.61,1.611-1.61h3.684c0.886,0,1.61,0.724,1.61,1.61v3.684C295.821,65.785,295.097,66.509,294.211,66.509
					z"/>
			</g>
			<g>
				<path style="fill-rule:evenodd;clip-rule:evenodd;fill:#E8BFC5;" d="M119.248,401.307h3.684c0.887,0,1.611-0.725,1.611-1.61
					v-3.685c0-0.887-0.724-1.61-1.611-1.61h-3.684c-0.886,0-1.61,0.724-1.61,1.61v3.685
					C117.638,400.582,118.361,401.307,119.248,401.307z"/>
				<path style="fill-rule:evenodd;clip-rule:evenodd;fill:#FFFFFF;" d="M132.021,401.307h3.684c0.887,0,1.611-0.725,1.611-1.61
					v-3.685c0-0.887-0.724-1.61-1.611-1.61h-3.684c-0.886,0-1.61,0.724-1.61,1.61v3.685
					C130.412,400.582,131.135,401.307,132.021,401.307z"/>
				<path style="fill-rule:evenodd;clip-rule:evenodd;fill:#E8BFC5;" d="M144.796,401.307h3.684c0.887,0,1.611-0.725,1.611-1.61
					v-3.685c0-0.887-0.724-1.61-1.611-1.61h-3.684c-0.886,0-1.61,0.724-1.61,1.61v3.685
					C143.186,400.582,143.909,401.307,144.796,401.307z"/>
				<path style="fill-rule:evenodd;clip-rule:evenodd;fill:#FFFFFF;" d="M157.569,401.307h3.684c0.887,0,1.612-0.725,1.612-1.61
					v-3.685c0-0.887-0.725-1.61-1.612-1.61h-3.684c-0.885,0-1.611,0.724-1.611,1.61v3.685
					C155.958,400.582,156.684,401.307,157.569,401.307z"/>
				<path style="fill-rule:evenodd;clip-rule:evenodd;fill:#E8BFC5;" d="M170.345,401.307h3.682c0.887,0,1.611-0.725,1.611-1.61
					v-3.685c0-0.887-0.725-1.61-1.611-1.61h-3.682c-0.887,0-1.611,0.724-1.611,1.61v3.685
					C168.734,400.582,169.458,401.307,170.345,401.307z"/>
				<path style="fill-rule:evenodd;clip-rule:evenodd;fill:#FFFFFF;" d="M145.259,387.38h3.683c0.887,0,1.611-0.725,1.611-1.61
					v-3.684c0-0.887-0.725-1.609-1.611-1.609h-3.683c-0.886,0-1.611,0.723-1.611,1.609v3.684
					C143.647,386.656,144.373,387.38,145.259,387.38z"/>
				<path style="fill-rule:evenodd;clip-rule:evenodd;fill:#E8BFC5;" d="M158.033,387.38h3.683c0.887,0,1.61-0.725,1.61-1.61v-3.684
					c0-0.887-0.724-1.609-1.61-1.609h-3.683c-0.886,0-1.611,0.723-1.611,1.609v3.684C156.421,386.656,157.146,387.38,158.033,387.38
					z"/>
				<path style="fill-rule:evenodd;clip-rule:evenodd;fill:#FFFFFF;" d="M170.807,387.38h3.683c0.886,0,1.61-0.725,1.61-1.61v-3.684
					c0-0.887-0.724-1.609-1.61-1.609h-3.683c-0.887,0-1.611,0.723-1.611,1.609v3.684C169.195,386.656,169.92,387.38,170.807,387.38z
					"/>
			</g>
			<path style="fill-rule:evenodd;clip-rule:evenodd;fill:#FFFFFF;" d="M86.77,327.982c0-0.529,0.429-0.958,0.956-0.958
				c0.529,0,0.958,0.429,0.958,0.958v4.305c0,0.529-0.429,0.958-0.958,0.958c-0.528,0-0.956-0.429-0.956-0.958V327.982
				L86.77,327.982z M80.245,331.476c-0.374-0.372-0.374-0.979,0-1.354c0.374-0.374,0.98-0.374,1.354,0l3.045,3.046
				c0.373,0.374,0.373,0.98,0,1.354c-0.374,0.374-0.98,0.374-1.355,0L80.245,331.476L80.245,331.476z M78.103,338.563
				c-0.528,0-0.957-0.43-0.957-0.958c0-0.529,0.429-0.958,0.957-0.958h4.306c0.529,0,0.958,0.429,0.958,0.958
				c0,0.528-0.429,0.958-0.958,0.958H78.103L78.103,338.563z M81.599,345.087c-0.374,0.374-0.98,0.374-1.354,0
				c-0.374-0.374-0.374-0.979,0-1.354l3.044-3.046c0.375-0.372,0.981-0.372,1.355,0c0.373,0.374,0.373,0.982,0,1.354L81.599,345.087
				L81.599,345.087z M88.685,347.228c0,0.529-0.429,0.958-0.958,0.958c-0.528,0-0.956-0.429-0.956-0.958v-4.306
				c0-0.526,0.429-0.957,0.956-0.957c0.529,0,0.958,0.431,0.958,0.957V347.228L88.685,347.228z M95.209,343.734
				c0.373,0.374,0.373,0.98,0,1.354c-0.374,0.374-0.98,0.374-1.354,0l-3.045-3.046c-0.374-0.372-0.374-0.979,0-1.354
				c0.373-0.372,0.98-0.372,1.353,0L95.209,343.734L95.209,343.734z M97.351,336.647c0.529,0,0.957,0.429,0.957,0.958
				c0,0.528-0.429,0.958-0.957,0.958h-4.306c-0.528,0-0.957-0.43-0.957-0.958c0-0.529,0.429-0.958,0.957-0.958H97.351
				L97.351,336.647z M93.855,330.123c0.374-0.374,0.979-0.374,1.354,0c0.373,0.374,0.373,0.981,0,1.354l-3.045,3.046
				c-0.373,0.374-0.98,0.374-1.353,0c-0.374-0.374-0.374-0.979,0-1.354L93.855,330.123z"/>
			<path style="fill-rule:evenodd;clip-rule:evenodd;fill:#FFFFFF;" d="M184.907,74.562c0-0.528,0.429-0.957,0.958-0.957
				c0.528,0,0.957,0.429,0.957,0.957v4.306c0,0.529-0.429,0.958-0.957,0.958c-0.529,0-0.958-0.429-0.958-0.958V74.562
				L184.907,74.562z M178.382,78.058c-0.373-0.374-0.373-0.98,0-1.354c0.374-0.374,0.981-0.374,1.355,0l3.045,3.045
				c0.374,0.374,0.374,0.98,0,1.354c-0.374,0.373-0.98,0.373-1.354,0L178.382,78.058L178.382,78.058z M176.241,85.143
				c-0.529,0-0.958-0.429-0.958-0.957c0-0.528,0.429-0.958,0.958-0.958h4.306c0.529,0,0.958,0.429,0.958,0.958
				c0,0.528-0.429,0.957-0.958,0.957H176.241L176.241,85.143z M179.736,91.668c-0.373,0.373-0.981,0.373-1.355,0
				c-0.373-0.374-0.373-0.98,0-1.354l3.046-3.044c0.373-0.374,0.979-0.374,1.354,0c0.374,0.373,0.374,0.98,0,1.354L179.736,91.668
				L179.736,91.668z M186.822,93.81c0,0.528-0.429,0.958-0.957,0.958c-0.529,0-0.958-0.43-0.958-0.958v-4.306
				c0-0.528,0.429-0.957,0.958-0.957c0.528,0,0.957,0.429,0.957,0.957V93.81L186.822,93.81z M193.348,90.314
				c0.373,0.373,0.373,0.98,0,1.354c-0.374,0.373-0.98,0.373-1.354,0l-3.045-3.045c-0.373-0.374-0.373-0.98,0-1.354
				c0.374-0.374,0.98-0.374,1.355,0L193.348,90.314L193.348,90.314z M195.488,83.229c0.529,0,0.958,0.429,0.958,0.958
				c0,0.528-0.429,0.957-0.958,0.957h-4.305c-0.529,0-0.958-0.429-0.958-0.957c0-0.528,0.429-0.958,0.958-0.958H195.488
				L195.488,83.229z M191.993,76.703c0.374-0.374,0.98-0.374,1.354,0c0.373,0.374,0.373,0.981,0,1.354l-3.045,3.045
				c-0.374,0.373-0.98,0.373-1.355,0c-0.373-0.374-0.373-0.98,0-1.354L191.993,76.703z"/>
			<path style="fill-rule:evenodd;clip-rule:evenodd;fill:#FFFFFF;" d="M448.265,200.029c0-0.529,0.43-0.958,0.958-0.958
				c0.527,0,0.956,0.429,0.956,0.958v4.306c0,0.528-0.429,0.957-0.956,0.957c-0.528,0-0.958-0.429-0.958-0.957V200.029
				L448.265,200.029z M441.74,203.525c-0.374-0.374-0.374-0.98,0-1.354c0.373-0.374,0.979-0.374,1.353,0l3.044,3.044
				c0.374,0.374,0.374,0.98,0,1.354c-0.373,0.374-0.98,0.374-1.354,0L441.74,203.525L441.74,203.525z M439.599,210.61
				c-0.529,0-0.958-0.428-0.958-0.958c0-0.528,0.429-0.957,0.958-0.957h4.306c0.527,0,0.957,0.428,0.957,0.957
				c0,0.529-0.43,0.958-0.957,0.958H439.599L439.599,210.61z M443.094,217.135c-0.374,0.374-0.98,0.374-1.353,0
				c-0.374-0.374-0.374-0.98,0-1.354l3.044-3.044c0.373-0.374,0.98-0.374,1.354,0c0.374,0.374,0.374,0.98,0,1.354L443.094,217.135
				L443.094,217.135z M450.179,219.277c0,0.529-0.429,0.957-0.956,0.957c-0.528,0-0.958-0.429-0.958-0.957v-4.306
				c0-0.528,0.43-0.958,0.958-0.958c0.527,0,0.956,0.429,0.956,0.958V219.277L450.179,219.277z M456.703,215.781
				c0.374,0.374,0.374,0.98,0,1.354c-0.373,0.374-0.979,0.374-1.353,0l-3.044-3.045c-0.374-0.374-0.374-0.98,0-1.354
				c0.373-0.374,0.98-0.374,1.353,0L456.703,215.781L456.703,215.781z M458.845,208.696c0.529,0,0.958,0.428,0.958,0.957
				c0,0.529-0.429,0.958-0.958,0.958h-4.305c-0.528,0-0.956-0.428-0.956-0.958c0-0.528,0.428-0.957,0.956-0.957H458.845
				L458.845,208.696z M455.35,202.171c0.374-0.374,0.98-0.374,1.353,0c0.374,0.374,0.374,0.979,0,1.354l-3.044,3.045
				c-0.373,0.374-0.98,0.374-1.353,0c-0.374-0.373-0.374-0.98,0-1.354L455.35,202.171z"/>
			<path style="fill-rule:evenodd;clip-rule:evenodd;fill:#FFFFFF;" d="M167.541,197.078L167.541,197.078
				c-2.358-2.358-6.218-2.358-8.576,0l-1.028,1.029l-1.029-1.029c-2.358-2.358-6.217-2.358-8.575,0l0,0
				c-2.358,2.358-2.358,6.217,0,8.575l1.029,1.029l8.575,8.575l8.575-8.575l1.029-1.029
				C169.899,203.294,169.898,199.436,167.541,197.078z"/>
			<path style="fill-rule:evenodd;clip-rule:evenodd;fill:#FFFFFF;" d="M327.791,254.221L327.791,254.221
				c-2.358-2.358-6.218-2.358-8.576,0l-1.028,1.028l-1.029-1.028c-2.358-2.358-6.217-2.358-8.575,0l0,0
				c-2.358,2.358-2.358,6.218,0,8.576l1.029,1.028l8.575,8.575l8.576-8.575l1.028-1.028
				C330.15,260.439,330.15,256.58,327.791,254.221z"/>
			<path style="fill-rule:evenodd;clip-rule:evenodd;fill:#FFFFFF;" d="M342.698,97.697L342.698,97.697
				c-2.358-2.358-6.218-2.358-8.576,0l-1.028,1.029l-1.029-1.029c-2.358-2.358-6.217-2.358-8.575,0l0,0
				c-2.357,2.358-2.357,6.217,0,8.575l1.029,1.029l8.575,8.576l8.576-8.576l1.028-1.029
				C345.057,103.914,345.057,100.056,342.698,97.697z"/>
			<path style="fill-rule:evenodd;clip-rule:evenodd;fill:#FFFFFF;" d="M79.674,163.046c1.711,0,3.105-1.395,3.105-3.105
				c0-1.71-1.395-3.105-3.105-3.105c-1.71,0-3.106,1.396-3.106,3.105C76.569,161.651,77.964,163.046,79.674,163.046z"/>
			<path style="fill-rule:evenodd;clip-rule:evenodd;fill:#FFFFFF;" d="M167.874,354.354c1.711,0,3.106-1.397,3.106-3.106
				c0-1.71-1.395-3.104-3.106-3.104c-1.71,0-3.105,1.395-3.105,3.104C164.769,352.957,166.164,354.354,167.874,354.354z"/>
			<path style="fill-rule:evenodd;clip-rule:evenodd;fill:#FFFFFF;" d="M371.604,385.41c1.71,0,3.104-1.395,3.104-3.107
				c0-1.71-1.395-3.104-3.104-3.104c-1.711,0-3.106,1.395-3.106,3.104C368.498,384.015,369.894,385.41,371.604,385.41z"/>
			<path style="fill-rule:evenodd;clip-rule:evenodd;fill:#FFFFFF;" d="M348,206.525c1.711,0,3.105-1.395,3.105-3.105
				c0-1.71-1.395-3.105-3.105-3.105c-1.71,0-3.105,1.395-3.105,3.105C344.895,205.13,346.29,206.525,348,206.525z"/>
			<path style="fill-rule:evenodd;clip-rule:evenodd;fill:#FFFFFF;" d="M372.487,332.839c0-0.529,0.429-0.958,0.957-0.958
				c0.529,0,0.958,0.429,0.958,0.958v4.306c0,0.528-0.429,0.957-0.958,0.957c-0.528,0-0.957-0.429-0.957-0.957V332.839
				L372.487,332.839z M365.963,336.333c-0.374-0.372-0.374-0.979,0-1.353c0.373-0.374,0.98-0.374,1.354,0l3.045,3.046
				c0.373,0.372,0.373,0.979,0,1.353c-0.374,0.374-0.98,0.374-1.354,0L365.963,336.333L365.963,336.333z M363.82,343.42
				c-0.528,0-0.957-0.429-0.957-0.958c0-0.528,0.429-0.958,0.957-0.958h4.307c0.527,0,0.957,0.43,0.957,0.958
				c0,0.529-0.43,0.958-0.957,0.958H363.82L363.82,343.42z M367.316,349.945c-0.373,0.374-0.98,0.374-1.354,0
				c-0.374-0.374-0.374-0.981,0-1.353l3.044-3.046c0.374-0.374,0.98-0.374,1.354,0c0.373,0.374,0.373,0.981,0,1.354L367.316,349.945
				L367.316,349.945z M374.402,352.086c0,0.529-0.429,0.958-0.958,0.958c-0.528,0-0.957-0.429-0.957-0.958v-4.305
				c0-0.529,0.429-0.958,0.957-0.958c0.529,0,0.958,0.429,0.958,0.958V352.086L374.402,352.086z M380.927,348.591
				c0.373,0.372,0.373,0.979,0,1.353c-0.374,0.374-0.98,0.374-1.354,0l-3.044-3.046c-0.373-0.372-0.373-0.979,0-1.354
				c0.374-0.374,0.98-0.374,1.353,0L380.927,348.591L380.927,348.591z M383.068,341.504c0.529,0,0.957,0.43,0.957,0.958
				c0,0.529-0.428,0.958-0.957,0.958h-4.306c-0.528,0-0.957-0.429-0.957-0.958c0-0.528,0.429-0.958,0.957-0.958H383.068
				L383.068,341.504z M379.572,334.98c0.374-0.374,0.98-0.374,1.354,0c0.373,0.374,0.373,0.981,0,1.353l-3.045,3.046
				c-0.373,0.374-0.979,0.374-1.353,0c-0.373-0.374-0.373-0.981,0-1.353L379.572,334.98z"/>
			<path style="fill-rule:evenodd;clip-rule:evenodd;fill:#FFFFFF;" d="M448.627,364.939L448.627,364.939
				c-2.358-2.358-6.216-2.358-8.575,0l-1.029,1.028l-1.028-1.028c-2.359-2.358-6.217-2.358-8.575,0l0,0
				c-2.358,2.358-2.358,6.217,0,8.575l1.029,1.028l8.574,8.575l8.576-8.575l1.028-1.028
				C450.985,371.156,450.985,367.297,448.627,364.939z"/>
		</g>
		<g>
			<path style="fill-rule:evenodd;clip-rule:evenodd;fill:#D2887A;" d="M255.563,150.837c-10.392,6.656-22.177,14.141-22.177,14.141
				l-0.3-4.809h-10.282l-0.756,10.929c0,0-0.459,5.29,3.51,7.491c3.969,2.2,10.367-0.079,13.533-1.391
				c3.166-1.313,22.958-10.551,22.958-10.551C273.261,161.664,265.954,144.18,255.563,150.837z"/>
			<path style="fill-rule:evenodd;clip-rule:evenodd;fill:#643954;" d="M211.556,176.915c3.868,9.702,6.66,15.927,7.158,17.417
				c0.705,2.108,4.765,7.576,12.13,8.11c7.365,0.534,41.462-0.255,42.015-0.274c0.553-0.019,1.95-0.739,1.91-1.883
				c-0.04-1.144-2.846-19.373-3.217-20.94c-0.37-1.566-1.479-1.686-4.042-1.519c-2.562,0.168-25.976,1.534-25.976,1.534
				s-0.193-2.165-0.811-2.894c-0.618-0.729-2.381-0.312-2.381-0.312l-0.226-0.723L211.556,176.915z"/>
			<g>
				<path style="fill-rule:evenodd;clip-rule:evenodd;fill:#D2887A;" d="M204.688,398.729l-0.222,1.484c0,0-0.946,6.335-1.208,7.551
					c-0.263,1.217,0.342,4.053,0.342,4.053s2.292,2.736,4.573,3.134c2.281,0.4,12.722,0.847,12.893,0.3
					c0.172-0.548-2.275-4.877-2.275-4.877s-1.202-2.468-0.084-10.003C218.694,394.848,204.688,398.729,204.688,398.729z"/>
				<path style="fill-rule:evenodd;clip-rule:evenodd;fill:#3F2329;" d="M216.323,411.494l-1.283-0.441c0,0-2.908,1.465-6.565,0.271
					c-3.657-1.195-5.079-3.16-5.079-3.16s-0.178-0.399-0.572-0.399c-0.394,0-0.088,0-0.431,0c-0.343,0-1.295,0.144-1.689,1.04
					c-0.393,0.897-1.217,6.366-0.094,9.397c1.123,3.03,2.697,2.633,2.697,2.633s6.247-1.768,10.463-0.343
					c4.215,1.424,8.076,2.904,8.076,2.904S221.643,415.367,216.323,411.494z"/>
				<path style="fill-rule:evenodd;clip-rule:evenodd;fill:#383260;" d="M244.776,422.575l0.465-1.307c0,0,0-0.995,0-1.587
					c0-0.594-0.26-2.38-2.063-2.38c-1.803,0-5.307,0-6.907,0c-1.6,0-10.259-4.213-16.913-9.394c0,0-0.469-0.527-1.168-0.144
					c-0.699,0.384-2.819,2.008-3.035,2.179c-0.216,0.17-0.241,0.867-0.115,1.11c0.127,0.241,6.286,11.915,6.286,11.915
					S239.457,425.246,244.776,422.575z"/>
				<path style="fill-rule:evenodd;clip-rule:evenodd;fill:#383260;" d="M245.241,421.268c0,0,0.406,0.323,0.406,0.684
					c0,0.36,0,0.985,0,1.272c0,0.283-0.8,1.619-2.588,1.619c-1.787,0-16.668,0-19.168,0c-2.501,0-5.139-0.606-6.846-1.428
					c-1.706-0.818-4.936-1.73-4.936-1.73s-0.458-0.148-0.458,0.604c0,0.752,0,1.093,0,1.457c0,0.364,0.233,1.355-1.331,1.355
					c-1.564,0-8.613,0-9.324,0c-0.711,0-1.524-0.386-1.524-1.776c0-1.389,0-2.709,0-3.575c0-0.865,0.548-1.549,1.138-1.549
					c0.589,0,4.165,0,7.171,0c3.007,0,5.403,0.705,9.143,2.392c3.738,1.687,7.15,2.186,11.051,2.186c3.901,0,8.838,0,10.727,0
					S243.963,422.369,245.241,421.268z"/>
			</g>
			<g>
				<path style="fill-rule:evenodd;clip-rule:evenodd;fill:#E6B5A3;" d="M199.681,398.729l-0.213,1.484c0,0-0.907,6.335-1.158,7.551
					c-0.252,1.217,0.328,4.053,0.328,4.053s2.2,2.736,4.387,3.134c2.186,0.4,12.204,0.847,12.368,0.3
					c0.165-0.548-2.183-4.877-2.183-4.877s-1.151-2.468-0.08-10.003C213.118,394.848,199.681,398.729,199.681,398.729z"/>
				<path style="fill-rule:evenodd;clip-rule:evenodd;fill:#383260;" d="M210.843,411.494l-1.23-0.441c0,0-2.789,1.465-6.297,0.271
					c-3.508-1.195-4.872-3.16-4.872-3.16s-0.17-0.399-0.549-0.399c-0.377,0-0.085,0-0.413,0c-0.329,0-1.243,0.144-1.62,1.04
					c-0.378,0.897-1.169,6.366-0.091,9.397c1.077,3.03,2.587,2.633,2.587,2.633s5.993-1.768,10.037-0.343
					c4.044,1.424,7.747,2.904,7.747,2.904S215.947,415.367,210.843,411.494z"/>
				<path style="fill-rule:evenodd;clip-rule:evenodd;fill:#443E71;" d="M238.139,422.575l0.446-1.307c0,0,0-0.995,0-1.587
					c0-0.594-0.248-2.38-1.979-2.38c-1.729,0-5.091,0-6.626,0c-1.535,0-9.843-4.213-16.226-9.394c0,0-0.45-0.527-1.12-0.144
					c-0.67,0.384-2.704,2.008-2.911,2.179c-0.208,0.17-0.232,0.867-0.111,1.11c0.123,0.241,6.03,11.915,6.03,11.915
					S233.036,425.246,238.139,422.575z"/>
				<path style="fill-rule:evenodd;clip-rule:evenodd;fill:#443E71;" d="M238.584,421.268c0,0,0.39,0.323,0.39,0.684
					c0,0.36,0,0.985,0,1.272c0,0.283-0.767,1.619-2.482,1.619c-13.456,0-26.912,0.259-40.353,0.259
					c-0.682,0-1.461-0.386-1.461-1.776c0-1.389,0-2.709,0-3.575c0-0.865,0.526-1.549,1.092-1.549c0.565,0,3.995,0,6.879,0
					c2.884,0,5.184,0.705,8.771,2.392c3.585,1.687,6.86,2.186,10.602,2.186c3.742,0,8.479,0,10.29,0
					C234.125,422.778,237.359,422.369,238.584,421.268z"/>
			</g>
			<path style="fill-rule:evenodd;clip-rule:evenodd;fill:#383260;" d="M278.225,125.199c-0.089,0.434-0.205,0.886-0.357,1.358
				c-2.089,6.487-2.546,7.243-0.716,10.171c1.829,2.928,4.696,8.254-1.702,14.786c-6.399,6.531-1.104,9.541-2.176,13.204
				c-1.072,3.663-7.329,2.639-8.984,4.681c-1.656,2.042-1.677,6.022-6.404,5.18c-4.728-0.843-7.71-9.092-4.495-15.297
				c3.214-6.205,3.574-7.547,2.066-8.642c-1.507-1.095-6.944-7.468,1.606-16.906c3.487-3.851,4.902-6.613,5.353-8.535H278.225z"/>
			<path style="fill-rule:evenodd;clip-rule:evenodd;fill:#E6B5A3;" d="M262.424,133.337c2.007-0.385,2.392,0.447,3.298,1.832
				c1.816,2.774,5.813,8.994,5.813,8.994h13.736l-11.368-22.539l-10.579,5.842L262.424,133.337z"/>
			<path style="fill-rule:evenodd;clip-rule:evenodd;fill:#D2887A;" d="M262.424,133.337c1.147-0.22,1.765-0.042,2.252,0.408
				l10.781-2.587l1.28-3.914l-2.835-5.621l-10.579,5.842L262.424,133.337z"/>
			<path style="fill-rule:evenodd;clip-rule:evenodd;fill:#714360;" d="M226.151,143.921c0,0,3.869,3.237,4.737,4.224
				c0.868,0.987,8.329,28.421,8.645,32.052c0.315,3.631-0.599,24.3-0.599,24.3s5.019,39.961,5.492,43.751
				c0.474,3.789-12.157,12.474-12.157,12.474L226.151,143.921z"/>
			<path style="fill-rule:evenodd;clip-rule:evenodd;fill:#FFFFFF;" d="M320.676,391.089
				c-15.157-26.526-29.964-114.495-29.332-139.757c0.632-25.263-13.753-39.517-13.753-39.517
				c-12.197-25.817,18.961-49.029,11.15-65.796c-1.552-3.33-5.029-4.947-5.029-4.947c0.418,1.37-1.286,1.552-5.864,1.71
				c-4.58,0.158-8.279,1.467-8.279,1.467s-8.066,8.873-8.935,9.742c-0.867,0.868-13.184,7.027-14.763,9.71
				c-1.579,2.684,1.579,14.684,1.421,21.237c-0.158,6.552-1.664,18.879-2.132,25.499c-0.468,6.622-7.421,46.105-6.789,73.577
				c0.632,27.474-7.296,84.496-10.454,101.547c0,0-0.395,1.737,0.236,3.316c0.632,1.578,4.736,3.079,4.736,3.079
				s-4.579,26.13-5.132,28.104c-0.553,1.975,1.263,5.369,4.105,6.396c2.842,1.026,23.525,5.052,39.473,1.262
				c0,0,3.473-1.42,3.315-5.525c0,0,17.526,0.474,26.053-4.263c0,0,1.263-0.474,1.263-3.632c0-3.159-0.631-5.684-0.631-5.684
				s12.946-5.685,18.946-14.526C320.281,394.088,321.308,393.14,320.676,391.089z"/>
			<path style="fill-rule:evenodd;clip-rule:evenodd;fill:#E3E1F1;" d="M275.216,204.512c-1.852-9.997,1.847-19.53,6.011-28.361
				l-3.89-4.196c0,0-0.742,7.42-1.059,8.921c-0.316,1.499-17.841,15.71-17.841,15.71l3.683,6.354L275.216,204.512z"/>
			<path style="fill-rule:evenodd;clip-rule:evenodd;fill:#E3E1F1;" d="M275.44,205.593c-0.263-1.166-0.449-2.325-0.564-3.478
				l-29.153,1.883c-0.233,2.415-0.437,4.639-0.564,6.439c-0.092,1.312-0.441,3.916-0.934,7.457l20.154,0.265
				c0,0,2.447,0,1.816-2.685c-0.632-2.684-1.422-4.658-1.422-4.658l10.422-3L275.44,205.593z"/>
			<path style="fill-rule:evenodd;clip-rule:evenodd;fill:#E3E1F1;" d="M245.559,168.801c0.388,4.254,1.512,10.078,1.709,14.422
				c8.987-0.009,16.758-8.761,16.758-8.761l14.763-15.868l1.896,7.421c0,0,0.553-7.815-0.79-9.395
				c-1.341-1.579-16.736,7.658-16.736,7.658L245.559,168.801z"/>
			<path style="fill-rule:evenodd;clip-rule:evenodd;fill:#E6B5A3;" d="M264.458,208.119c3.405,0.429,8.265,0.678,10.579-2.54
				c0.688-0.955,3.342-6.843,2.839-10.4c-0.12-0.848-2.411-1.48-2.81-1.757c0,0-2.555,0.606-2.988,0.96
				c-0.136,0.111,1.788-1.802,1.749-2.637c-0.035-0.73-1.772,0.02-2.529,0.146c-0.506,0.084-2.266,0-3.809,0.692
				c-1.892,0.849-3.222,2.445-3.517,3.154C262.467,199.369,264.458,208.119,264.458,208.119z"/>
			<path style="fill-rule:evenodd;clip-rule:evenodd;fill:#FFFFFF;" d="M258.655,193.779c0,0,5.836-0.29,6.385-0.361
				c0.55-0.071,0.855,0.426,1.12,0.925c0.266,0.499,2.068,15.619,2.068,15.619s0.256,1.013-0.747,1.465
				c-1.003,0.453-6.556,1.518-6.556,1.518L258.655,193.779z"/>
			<path style="fill-rule:evenodd;clip-rule:evenodd;fill:#462A3C;" d="M233.842,238.732c0,0,0.563,17.921-0.228,21.553
				c-0.791,3.631-12.27,133.102-12.558,140.997c0,0-0.151,1.737-2.203,1.737c-2.052,0-12.947,0-12.947,0s-1.63-0.08-1.86-2.604
				c-0.231-2.527,1.098-54.948,1.042-56.527c-0.056-1.579-1.074-2.368-1.189-3.632c-0.116-1.261,1.47-2.446,1.855-3.551
				c0.386-1.104-10.653-79.184-10.15-88.973C196.106,237.943,233.842,238.732,233.842,238.732z"/>
			<path style="fill-rule:evenodd;clip-rule:evenodd;fill:#59344A;" d="M233.841,238.732c0,0-0.07,17.921-0.99,21.553
				c-0.919,3.631-16.978,133.102-17.544,140.997c0,0-0.212,1.737-2.264,1.737c-2.052,0-12.948,0-12.948,0s-1.626-0.08-1.769-2.604
				c-0.142-2.527,3.043-54.948,3.043-56.527c0-1.579-0.991-2.368-1.061-3.632c-0.071-1.261,1.556-2.446,1.981-3.551
				c0.424-1.104-7.852-79.184-7.003-88.973C196.134,237.943,233.841,238.732,233.841,238.732z"/>
			<path style="fill-rule:evenodd;clip-rule:evenodd;fill:#C8C4E1;" d="M234.845,234.906c0,0,2.333-7.342,2.734-8.565
				c0.402-1.223-0.613-6.434-0.613-6.434s-5.66,11.447-5.693,11.92C231.24,232.301,233.021,236.169,234.845,234.906z"/>
			<path style="fill-rule:evenodd;clip-rule:evenodd;fill:#C8C4E1;" d="M229.425,241.419l5.414,0.088c0,0,1.063-0.009,1.063-1.588
				c0-1.58,0.033-5.211,0.033-5.211s-0.097-0.829-0.81-1.026c-0.712-0.197-3.983,0.434-3.983,0.434L229.425,241.419z"/>
			<polygon style="fill-rule:evenodd;clip-rule:evenodd;fill:#E3E1F1;" points="228.282,148.241 233.454,175.144 208.507,152.25 
				217.113,132.435 228.086,145.066 			"/>
			<path style="fill-rule:evenodd;clip-rule:evenodd;fill:#E6B5A3;" d="M227.625,143.214l3.622-10.526l1.132-10.143
				c0,0-5.076-3.829-5.747-4.813c-0.671-0.985-8.762-4.167-8.762-4.167l-4.044,7.633l-2.785,9.567l5.494,5.766L227.625,143.214z"/>
			<path style="fill-rule:evenodd;clip-rule:evenodd;fill:#D3857F;" d="M229.727,137.107l1.52-4.419l1.132-10.143
				c0,0-5.076-3.829-5.747-4.813c-0.545-0.8-5.975-3.045-8.004-3.864c-0.425,0.228-0.855,0.46-1.287,0.693l-3.515,6.636
				l-0.359,1.235L229.727,137.107z"/>
			<path style="fill-rule:evenodd;clip-rule:evenodd;fill:#E6B5A3;" d="M244.477,100.559c0.315,1.04,2.843,4.432,1.43,9.33
				c-1.638,5.677-1.951,8.314-0.117,10.282c0,0,0.34,0.518-0.05,1.155c-0.39,0.636-1.703,1.564-3.178,1.583
				c-0.999,1.09-2.551,4.223-3.125,5.307c-1.824,3.445-2.912,5.138-6.932,4.698c-4.024-0.442-14.09-4.858-13.191-13.538
				c0.899-8.68,1.859-8.41,1.859-8.41s13.69-13.193,14.552-13.28c0.861-0.086,8.617-1.779,8.617-1.779L244.477,100.559z"/>
			<path style="fill-rule:evenodd;clip-rule:evenodd;fill:#D2887A;" d="M240.848,125.476c-0.074,0.251-0.14,0.508-0.202,0.764
				c-0.04,0.014-0.661-0.136-0.705-0.133c-1.377,0.097-2.914-0.483-3.734-1.622c-0.153-0.211-0.105-0.511,0.107-0.664
				c0.212-0.152,0.511-0.104,0.663,0.107c0.66,0.915,2.403,1.431,3.487,1.388C240.615,125.308,240.754,125.371,240.848,125.476z"/>
			<path style="fill-rule:evenodd;clip-rule:evenodd;fill:#DC9784;" d="M237.863,131.583c-1.155,1.012-2.907,1.598-5.358,1.33
				c-1.345-0.148-3.366-0.741-5.426-1.788c-0.645-1.383-1.294-1.907-0.885-4.585c0.409-2.677,3.158-6.421,5.368-7.631
				c1.257,2.633,2.514,5.267,3.77,7.9c0.889-1.907,0.821-3.437,2.65-2.953C237.982,123.857,238.051,129.492,237.863,131.583z"/>
			<path style="fill-rule:evenodd;clip-rule:evenodd;fill:#443E71;" d="M223.697,113.067c4.471-0.895,4.126-1.871,5.26-5.55
				c4.428-0.068,7.037-2.632,8.478-4.883c1.583,0.701,4.12-0.071,3.451-2.32l4.03,2.214c15.344,2.623,9.294-34.354,0.183-15.332
				c0,0-9.446-10.883-21.149-9.882c-4.427,0.346-6.955,3.842-8.308,6.767c-0.81-2.945-3.438-3.992-4.225-1.06
				c-0.604,2.25,0.21,4.46,0.989,5.906c-12.698,6.643,1.705,29.149,1.451,31.941c-0.019,0.21-0.031,0.33-0.031,0.33l0.335-0.111
				l2.848-3.22L223.697,113.067z"/>
			<path style="fill-rule:evenodd;clip-rule:evenodd;fill:#FFFFFF;" d="M212.045,124.442c0,0,1.675,0.018,2.446,0.746
				c0.771,0.729,13.331,15.684,14.306,17.607c0.973,1.922-0.515,5.446-0.515,5.446s-10.788-13.313-20.537-17.615
				C207.745,130.626,211.006,124.821,212.045,124.442z"/>
			<path style="fill-rule:evenodd;clip-rule:evenodd;fill:#E6B5A3;" d="M223.697,113.067c-0.606-9.915-9.185-7.999-9.584-2.019
				c-0.4,5.98,5.2,8.327,5.2,8.327l4.949-2.157L223.697,113.067z"/>
			<path style="fill-rule:evenodd;clip-rule:evenodd;fill:#D2887A;" d="M235.045,116.451c-1.56-0.618-3.326,0.144-3.946,1.703
				c-0.619,1.56,0.144,3.327,1.703,3.945c1.56,0.619,3.327-0.143,3.946-1.703C237.367,118.837,236.604,117.07,235.045,116.451z"/>
			<path style="fill-rule:evenodd;clip-rule:evenodd;fill:#383260;" d="M238.463,109.306c1.286-0.252,2.685-0.094,3.66,0.868
				c0.21,0.208,0.55,0.206,0.759-0.006c0.207-0.211,0.204-0.55-0.006-0.757c-1.176-1.161-3.071-1.53-4.649-1.149
				c-0.286,0.066-0.468,0.355-0.401,0.643C237.89,109.19,238.181,109.372,238.463,109.306z"/>
			<g>
				
					<path style="fill-rule:evenodd;clip-rule:evenodd;fill:none;stroke:#D2887A;stroke-width:0.7087;stroke-linecap:round;stroke-linejoin:round;stroke-miterlimit:2.6131;" d="
					M221.796,112.53c-0.667-5.385-5.367-4.253-5.39-0.998c-0.023,3.256,3.165,4.474,3.165,4.474"/>
				
					<path style="fill-rule:evenodd;clip-rule:evenodd;fill:none;stroke:#D2887A;stroke-width:0.7087;stroke-linecap:round;stroke-linejoin:round;stroke-miterlimit:2.6131;" d="
					M220.803,109.797c0,0-2.936,1.734-0.363,4.106"/>
			</g>
			<path style="fill-rule:evenodd;clip-rule:evenodd;fill:#383260;" d="M237.849,113.052c0.874,0.776,2.024,1.287,3.21,0.987
				c0.256-0.064,0.517,0.092,0.582,0.348c0.064,0.256-0.092,0.516-0.348,0.58c-1.43,0.362-3.057-0.21-4.099-1.217
				c-0.192-0.18-0.2-0.485-0.02-0.677C237.355,112.883,237.66,112.874,237.849,113.052z"/>
			<path style="fill-rule:evenodd;clip-rule:evenodd;fill:#383260;" d="M233.693,99.262c-3.185-2.962-7.853-7.046-10.386-7.855
				c-3.711-1.184-6.04-1.026-7.934-1.026c-1.895,0-2.967-1.454-2.967-1.454c-0.779-1.446-1.593-3.656-0.989-5.906
				c0.787-2.933,3.415-1.885,4.225,1.06c1.354-2.925,3.881-6.421,8.308-6.767c11.704-1.001,21.149,9.882,21.149,9.882
				c9.111-19.022,15.161,17.956-0.183,15.332l-4.03-2.214c0.669,2.249-1.868,3.021-3.451,2.32c-0.235-0.104-0.449-0.241-0.628-0.411
				C236.331,101.772,235.172,100.638,233.693,99.262z"/>
			<path style="fill-rule:evenodd;clip-rule:evenodd;fill:#443E71;" d="M253.507,96.226c-11.608,1.847-26.741-4.335-33.823-17.355
				c0.768-0.548,1.637-0.989,2.617-1.265c8.472,13.949,22.441,13.794,31.165,7.748c0.94,2.814,1.155,6.805,0.314,10.245
				C253.694,95.812,253.604,96.021,253.507,96.226z"/>
			<path style="fill-rule:evenodd;clip-rule:evenodd;fill:#714360;" d="M207.745,130.626c0,0-13.264,11.748-15.948,19.959
				c-2.684,8.21,4.58,49.42,4.58,51.947c0,2.527-0.79,2.882-1.026,3.751c-0.236,0.868,0.711,1.46,0.908,2.209
				c0.198,0.751-1.657,3.079-2.052,4.105c-0.395,1.027,1.54,4.028,1.775,4.659c0.237,0.631-15.946,27.829-16.814,28.776
				c-0.869,0.947,9.712,11.765,35.29,17.291c0,0,7.578,1.263,9.71-4.105c2.131-5.369,15.474-34.025,15.158-47.446
				c-0.316-13.421-3.236-28.814-4.025-32.762C234.509,175.061,217.695,125.878,207.745,130.626z"/>
			<path style="fill-rule:evenodd;clip-rule:evenodd;fill:#643954;" d="M192.021,169.506c0.853,8.426,2.198,17.749,3.169,24.356
				l11.282,21.098c0,0,2.921,5.21,9.632,5.053c4.854-0.115,16.521-1.178,22.607-1.759c0.43-2.393,0.657-4.591,0.613-6.485
				c-0.058-2.452-0.203-4.97-0.405-7.472l-19.971-1.494l-19.895-22.421l-3.947-17.21L192.021,169.506z"/>
			<path style="fill-rule:evenodd;clip-rule:evenodd;fill:#855169;" d="M207.624,130.471c0,0,3.322,8.908,3.874,10.645
				c0.039,0.122,0.18,0.399,0.404,0.808l4.434,0.425l-2.017,3.793c5.93,10.278,19.499,34.204,24.225,54.107
				c0,0-0.44-22.424-11.492-46.266c-11.053-23.842-18.266-25.138-18.266-25.138L207.624,130.471z"/>
			<path style="fill-rule:evenodd;clip-rule:evenodd;fill:#855169;" d="M194.733,178.727c6.83,17.384,12.386,28.873,13.136,30.965
				c0.751,2.093,4.93,7.471,12.305,7.845c7.374,0.374,41.448-1.157,41.999-1.189c0.551-0.03,1.932-0.781,1.867-1.924
				c-0.065-1.143-3.266-19.307-3.672-20.865c-0.404-1.559-1.516-1.654-4.072-1.43c-2.558,0.223-25.936,2.099-25.936,2.099
				s-0.241-2.16-0.874-2.876c-0.634-0.715-2.387-0.26-2.387-0.26s-7.185-21.375-10.821-32.407
				C208.611,135.417,178.934,138.517,194.733,178.727z"/>
			<path style="fill-rule:evenodd;clip-rule:evenodd;fill:#E6B5A3;" d="M268.948,126.84c-2.384,7.336-12.562,8.321-15.172,8.052
				c-3.987-0.411-1.432-5.572-2.859-9.545c-1.234-0.285-2.228-2.192-1.848-2.559c0.38-0.367,3.014-2.917,3.333-4.87
				c0.318-1.953-0.325,1.998,1.076-6.613c1.401-8.61,8.403-10.598,8.403-10.598l10.587,20.076
				C272.469,120.782,269.573,123.814,268.948,126.84z"/>
			<path style="fill-rule:evenodd;clip-rule:evenodd;fill:#D2887A;" d="M258.16,120.547c1.326,0.137,2.292,1.323,2.156,2.649
				c-0.138,1.328-1.323,2.293-2.65,2.156c-1.327-0.136-2.293-1.323-2.157-2.65C255.647,121.376,256.832,120.41,258.16,120.547z"/>
			<path style="fill-rule:evenodd;clip-rule:evenodd;fill:#383260;" d="M258.033,114.729c0.217,0.145,0.512,0.085,0.656-0.133
				c0.146-0.218,0.086-0.514-0.132-0.657c-1.142-0.777-2.762-1.048-4.043-0.477c-0.237,0.106-0.348,0.388-0.241,0.626
				c0.105,0.239,0.389,0.348,0.626,0.241C255.93,113.871,257.117,114.146,258.033,114.729z"/>
			<path style="fill-rule:evenodd;clip-rule:evenodd;fill:#383260;" d="M254.56,118.519c-0.2-0.169-0.226-0.47-0.057-0.671
				c0.17-0.2,0.472-0.225,0.671-0.056c0.004,0.002,1.199,1.023,2.522,0.12c0.217-0.148,0.514-0.093,0.662,0.124
				c0.082,0.12,0.103,0.264,0.067,0.394l0.188,0.272c0.112,0.162,0.07,0.385-0.091,0.497c-0.162,0.112-0.385,0.071-0.496-0.091
				l-0.139-0.199l-0.066,0.033l0.101,0.233c0.078,0.182-0.005,0.392-0.186,0.47c-0.182,0.078-0.393-0.005-0.471-0.187l-0.119-0.278
				c-0.037,0.008-0.074,0.015-0.11,0.021l0.007,0.26c0.007,0.197-0.149,0.362-0.346,0.369c-0.198,0.006-0.362-0.149-0.368-0.346
				l-0.008-0.252C255.29,119.142,254.562,118.522,254.56,118.519z"/>
			<path style="fill-rule:evenodd;clip-rule:evenodd;fill:#E6B5A3;" d="M265.786,146.546c-8.206,9.216-17.532,19.607-17.532,19.607
				c-3.559-10.201-7.117-20.401-10.676-30.602c-1.854,1.359-3.708,2.717-5.562,4.076l6.975,35.48c0,0,0.987,5.218,5.403,6.266
				c4.417,1.046,9.96-2.876,12.656-4.995c2.692-2.12,19.254-16.361,19.254-16.361C285.751,152.189,273.994,137.33,265.786,146.546z"
				/>
			<path style="fill-rule:evenodd;clip-rule:evenodd;fill:#383260;" d="M270.628,117.292c0,0-11.07-0.523-9.964-13.076
				c0,0-2.27,1.593-4.885,1.191c0,0-1.103,1.604-1.761,3.621c0,0-2.671-5.917-0.618-9.943c2.052-4.026,8.843-2.526,8.843-2.526
				c2.83-6.694,30.417-6.307,24.729,7.551c11.192,5.189,2.789,19.588,10.636,25.765c3.71,2.92,9.867,8.447,4.656,19.815
				c-5.21,11.369,3.001,12.79,3.316,17.999c0.315,5.211-8.211,6.79-9.396,10.184c-1.184,3.395,0.632,8.527-5.842,9.632
				c-6.474,1.105-14.132-8.13-12.868-17.603c1.262-9.474,1.104-11.369-1.343-12.079c-2.448-0.71-12.397-6.395-5.765-22.499
				C276.999,119.218,270.628,117.292,270.628,117.292z"/>
			<path style="fill-rule:evenodd;clip-rule:evenodd;fill:#E6B5A3;" d="M267.282,122.742c2.004-9.526,11.881-6.66,8.49,0.106
				c-1.83,3.647-6.824,3.992-6.824,3.992L267.282,122.742z"/>
			<g>
				
					<path style="fill-rule:evenodd;clip-rule:evenodd;fill:none;stroke:#D2887A;stroke-width:0.7087;stroke-linecap:round;stroke-linejoin:round;stroke-miterlimit:2.6131;" d="
					M269.871,120.766c2.321-4.015,5.641-1.558,4.573,1.011c-1.066,2.569-3.982,2.464-3.982,2.464"/>
				
					<path style="fill-rule:evenodd;clip-rule:evenodd;fill:none;stroke:#D2887A;stroke-width:0.7087;stroke-linecap:round;stroke-linejoin:round;stroke-miterlimit:2.6131;" d="
					M271.564,118.946c0,0,1.731,2.343-1.083,3.352"/>
			</g>
			<path style="fill-rule:evenodd;clip-rule:evenodd;fill:#443E71;" d="M259.859,96.293c6.027,9.169,19.246,15.918,32.683,13.931
				c-0.348-1.022-0.822-1.987-1.471-2.87c-12.058,0.9-19.685-6.26-22.324-14.529c-3.202,0.652-5.745,1.938-6.504,3.734
				C262.243,96.559,261.226,96.334,259.859,96.293z"/>
			<path style="fill-rule:evenodd;clip-rule:evenodd;fill:#383260;" d="M271.319,116.1l-0.691,1.192c0,0-2.348,0.9-2.545,3.703
				c0,0-2.724-2.842-1.105-5.802c1.618-2.961,4.382,0.71,4.382,0.71L271.319,116.1z"/>
			
				<line style="fill-rule:evenodd;clip-rule:evenodd;fill:none;stroke:#714360;stroke-width:0.7087;stroke-linecap:round;stroke-linejoin:round;stroke-miterlimit:2.6131;" x1="230.361" y1="194.228" x2="224.117" y2="194.474"/>
			
				<line style="fill-rule:evenodd;clip-rule:evenodd;fill:none;stroke:#714360;stroke-width:0.7087;stroke-linecap:round;stroke-linejoin:round;stroke-miterlimit:2.6131;" x1="227.099" y1="191.091" x2="225.973" y2="191.987"/>
			
				<line style="fill-rule:evenodd;clip-rule:evenodd;fill:none;stroke:#643954;stroke-width:0.7087;stroke-linecap:round;stroke-linejoin:round;stroke-miterlimit:2.6131;" x1="196.043" y1="208.02" x2="199.486" y2="212.79"/>
			
				<line style="fill-rule:evenodd;clip-rule:evenodd;fill:none;stroke:#643954;stroke-width:0.7087;stroke-linecap:round;stroke-linejoin:round;stroke-miterlimit:2.6131;" x1="195.982" y1="217.255" x2="197.276" y2="215.632"/>
			
				<line style="fill-rule:evenodd;clip-rule:evenodd;fill:none;stroke:#714360;stroke-width:0.7087;stroke-linecap:round;stroke-linejoin:round;stroke-miterlimit:2.6131;" x1="216.335" y1="142.349" x2="217.665" y2="139.806"/>
			<g>
				
					<path style="fill-rule:evenodd;clip-rule:evenodd;fill:none;stroke:#E3E1F1;stroke-width:0.7087;stroke-linecap:round;stroke-linejoin:round;stroke-miterlimit:2.6131;" d="
					M301.335,408.615c0,0-12.344-53.701-16.765-119.383"/>
				
					<path style="fill-rule:evenodd;clip-rule:evenodd;fill:none;stroke:#E3E1F1;stroke-width:0.7087;stroke-linecap:round;stroke-linejoin:round;stroke-miterlimit:2.6131;" d="
					M270.913,208.39c0,0,10.185,7.658,15.079,23.921"/>
				
					<path style="fill-rule:evenodd;clip-rule:evenodd;fill:none;stroke:#E3E1F1;stroke-width:0.7087;stroke-linecap:round;stroke-linejoin:round;stroke-miterlimit:2.6131;" d="
					M268.859,208.864c0,0,15.079,19.025,15.079,58.815"/>
				
					<path style="fill-rule:evenodd;clip-rule:evenodd;fill:none;stroke:#E3E1F1;stroke-width:0.7087;stroke-linecap:round;stroke-linejoin:round;stroke-miterlimit:2.6131;" d="
					M274.65,422.193c0,0-1.764-56.621-2.08-80.938"/>
				
					<path style="fill-rule:evenodd;clip-rule:evenodd;fill:none;stroke:#E3E1F1;stroke-width:0.7087;stroke-linecap:round;stroke-linejoin:round;stroke-miterlimit:2.6131;" d="
					M264.36,216.679c0,0,10.262,14.368,8.998,80.367"/>
				
					<path style="fill-rule:evenodd;clip-rule:evenodd;fill:none;stroke:#E3E1F1;stroke-width:0.7087;stroke-linecap:round;stroke-linejoin:round;stroke-miterlimit:2.6131;" d="
					M232.889,391.957c0,0,8.893-74.071,9.208-112.28"/>
				
					<path style="fill-rule:evenodd;clip-rule:evenodd;fill:none;stroke:#E3E1F1;stroke-width:0.7087;stroke-linecap:round;stroke-linejoin:round;stroke-miterlimit:2.6131;" d="
					M246.76,217.518c0,0-1.342,10.657-1.797,17.526"/>
				
					<path style="fill-rule:evenodd;clip-rule:evenodd;fill:none;stroke:#E3E1F1;stroke-width:0.7087;stroke-linecap:round;stroke-linejoin:round;stroke-miterlimit:2.6131;" d="
					M256.306,217.27c0,0,2.526,46.027,1.579,64.342c-0.947,18.315-2.525,63.155-2.525,63.155"/>
			</g>
			
				<path style="fill-rule:evenodd;clip-rule:evenodd;fill:none;stroke:#D2887A;stroke-width:0.7087;stroke-linecap:round;stroke-linejoin:round;stroke-miterlimit:2.6131;" d="
				M248.254,166.152c0,0,0.216,0.729,0.098,1.44"/>
			<path style="fill-rule:evenodd;clip-rule:evenodd;fill:#E6B5A3;" d="M231.353,138.961c-2.896-4.191-5.357-12.798-3.178-14.057
				c0.431-0.249,0.01-1.371,0.221-1.84c0.21-0.466,0.975-0.449,1.056-0.94c0.172-1.047,1.531-1.375,1.483-2.207
				c-0.054-0.942,1.047-0.847,1.313-0.639c1.17,0.919,3.841,9.157,3.841,9.157s0.843-5.579,1.738-4.579c0.894,1,1.315,7,1.315,8.368
				c0,1.368-0.947,8.895-0.947,8.895l-5.631,0.684L231.353,138.961z"/>
			
				<line style="fill-rule:evenodd;clip-rule:evenodd;fill:none;stroke:#D2887A;stroke-width:0.7087;stroke-linecap:round;stroke-linejoin:round;stroke-miterlimit:2.6131;" x1="230.934" y1="120.051" x2="234.061" y2="128.299"/>
			
				<line style="fill-rule:evenodd;clip-rule:evenodd;fill:none;stroke:#D2887A;stroke-width:0.7087;stroke-linecap:round;stroke-linejoin:round;stroke-miterlimit:2.6131;" x1="229.557" y1="122.138" x2="232.061" y2="129.246"/>
			
				<line style="fill-rule:evenodd;clip-rule:evenodd;fill:none;stroke:#D2887A;stroke-width:0.7087;stroke-linecap:round;stroke-linejoin:round;stroke-miterlimit:2.6131;" x1="228.136" y1="124.964" x2="230.219" y2="130.878"/>
			<path style="fill-rule:evenodd;clip-rule:evenodd;fill:#D2887A;" d="M255.086,127.498c0.218-0.144,0.512-0.085,0.657,0.134
				c0.145,0.218,0.085,0.514-0.134,0.658c-1.141,0.776-2.761,1.047-4.042,0.476c-0.238-0.106-0.348-0.388-0.241-0.626
				c0.105-0.239,0.389-0.348,0.627-0.242C252.983,128.356,254.17,128.081,255.086,127.498z"/>
		</g>
	</g>
</g>
</svg>
